<mxfile host="app.diagrams.net" modified="2023-02-20T09:35:14.777Z" agent="5.0 (Windows NT 10.0; Win64; x64) AppleWebKit/537.36 (KHTML, like Gecko) Chrome/109.0.0.0 Safari/537.36" etag="PPiK0ih03zttkyxWpyXD" version="20.8.20" type="github">
  <diagram id="42cKhq52vNJZRKFAm1b_" name="Seite-1">
    <mxGraphModel dx="5580" dy="2757" grid="1" gridSize="10" guides="1" tooltips="1" connect="1" arrows="1" fold="1" page="1" pageScale="1" pageWidth="3300" pageHeight="4681" math="0" shadow="0">
      <root>
        <mxCell id="0" />
        <mxCell id="1" parent="0" />
        <mxCell id="tth-UEwdZzJharhWVTQz-12" value="" style="endArrow=classic;html=1;rounded=0;entryX=1;entryY=0;entryDx=0;entryDy=0;exitX=0.271;exitY=0.292;exitDx=0;exitDy=0;exitPerimeter=0;" parent="1" source="DmpDktqdWVQR6J1gC0hd-7" target="DmpDktqdWVQR6J1gC0hd-9" edge="1">
          <mxGeometry width="50" height="50" relative="1" as="geometry">
            <mxPoint x="2410" y="1550" as="sourcePoint" />
            <mxPoint x="2460" y="1500" as="targetPoint" />
          </mxGeometry>
        </mxCell>
        <mxCell id="tth-UEwdZzJharhWVTQz-11" value="" style="endArrow=classic;html=1;rounded=0;entryX=0;entryY=0;entryDx=0;entryDy=0;exitX=0.729;exitY=0.208;exitDx=0;exitDy=0;exitPerimeter=0;" parent="1" source="DmpDktqdWVQR6J1gC0hd-7" target="2hkHsSnRgmPlp-JAB0Yl-3" edge="1">
          <mxGeometry width="50" height="50" relative="1" as="geometry">
            <mxPoint x="2410" y="1550" as="sourcePoint" />
            <mxPoint x="2460" y="1500" as="targetPoint" />
          </mxGeometry>
        </mxCell>
        <mxCell id="tth-UEwdZzJharhWVTQz-9" value="" style="endArrow=classic;html=1;rounded=0;entryX=1;entryY=1;entryDx=0;entryDy=0;exitX=0.271;exitY=0.708;exitDx=0;exitDy=0;exitPerimeter=0;" parent="1" source="DmpDktqdWVQR6J1gC0hd-7" target="2hkHsSnRgmPlp-JAB0Yl-1" edge="1">
          <mxGeometry width="50" height="50" relative="1" as="geometry">
            <mxPoint x="2310" y="1450" as="sourcePoint" />
            <mxPoint x="2460" y="1500" as="targetPoint" />
          </mxGeometry>
        </mxCell>
        <mxCell id="tth-UEwdZzJharhWVTQz-8" value="" style="endArrow=classic;html=1;rounded=0;entryX=0;entryY=1;entryDx=0;entryDy=0;" parent="1" target="2hkHsSnRgmPlp-JAB0Yl-5" edge="1">
          <mxGeometry width="50" height="50" relative="1" as="geometry">
            <mxPoint x="2347" y="1480" as="sourcePoint" />
            <mxPoint x="2460" y="1500" as="targetPoint" />
          </mxGeometry>
        </mxCell>
        <mxCell id="i0lhiT4KbpCjelZSpUZJ-27" value="" style="rounded=1;whiteSpace=wrap;html=1;fillColor=none;" parent="1" vertex="1">
          <mxGeometry x="2030" y="560" width="240" height="300" as="geometry" />
        </mxCell>
        <mxCell id="uiPFYnpJoN78IRm5a176-57" value="" style="rounded=1;whiteSpace=wrap;html=1;fillColor=none;" parent="1" vertex="1">
          <mxGeometry x="200" y="530" width="540" height="420" as="geometry" />
        </mxCell>
        <mxCell id="n7UCwueKNoSF1t-_QFoz-107" value="" style="rounded=1;whiteSpace=wrap;html=1;fillColor=none;dashed=1;strokeWidth=2;strokeColor=#009900;" parent="1" vertex="1">
          <mxGeometry x="210" y="750" width="520" height="180" as="geometry" />
        </mxCell>
        <mxCell id="n7UCwueKNoSF1t-_QFoz-106" value="" style="rounded=1;whiteSpace=wrap;html=1;fillColor=none;dashed=1;strokeWidth=2;strokeColor=#3333FF;" parent="1" vertex="1">
          <mxGeometry x="210" y="550" width="520" height="180" as="geometry" />
        </mxCell>
        <mxCell id="n7UCwueKNoSF1t-_QFoz-103" value="" style="rounded=1;whiteSpace=wrap;html=1;fillColor=none;dashed=1;strokeWidth=2;strokeColor=#009900;" parent="1" vertex="1">
          <mxGeometry x="210" y="265" width="520" height="170" as="geometry" />
        </mxCell>
        <mxCell id="uiPFYnpJoN78IRm5a176-1" value="" style="rounded=1;whiteSpace=wrap;html=1;fillColor=none;" parent="1" vertex="1">
          <mxGeometry x="200" y="50" width="540" height="400" as="geometry" />
        </mxCell>
        <mxCell id="n7UCwueKNoSF1t-_QFoz-102" value="" style="rounded=1;whiteSpace=wrap;html=1;fillColor=none;dashed=1;strokeWidth=2;strokeColor=#3333FF;" parent="1" vertex="1">
          <mxGeometry x="210" y="65" width="520" height="180" as="geometry" />
        </mxCell>
        <mxCell id="1AaqI7CcnLQnfkeEXJZW-124" style="edgeStyle=orthogonalEdgeStyle;rounded=0;orthogonalLoop=1;jettySize=auto;html=1;exitX=1;exitY=0.5;exitDx=0;exitDy=0;entryX=0;entryY=0.5;entryDx=0;entryDy=0;" parent="1" source="uiPFYnpJoN78IRm5a176-3" target="uiPFYnpJoN78IRm5a176-90" edge="1">
          <mxGeometry relative="1" as="geometry" />
        </mxCell>
        <mxCell id="uiPFYnpJoN78IRm5a176-3" value="Energy" style="ellipse;whiteSpace=wrap;html=1;" parent="1" vertex="1">
          <mxGeometry x="60" y="70" width="120" height="60" as="geometry" />
        </mxCell>
        <mxCell id="1AaqI7CcnLQnfkeEXJZW-122" style="edgeStyle=orthogonalEdgeStyle;rounded=0;orthogonalLoop=1;jettySize=auto;html=1;exitX=1;exitY=0.5;exitDx=0;exitDy=0;entryX=0;entryY=0.5;entryDx=0;entryDy=0;" parent="1" source="uiPFYnpJoN78IRm5a176-4" target="1AaqI7CcnLQnfkeEXJZW-121" edge="1">
          <mxGeometry relative="1" as="geometry" />
        </mxCell>
        <mxCell id="uiPFYnpJoN78IRm5a176-4" value="Base Plates" style="ellipse;whiteSpace=wrap;html=1;" parent="1" vertex="1">
          <mxGeometry x="60" y="170" width="120" height="60" as="geometry" />
        </mxCell>
        <mxCell id="1AaqI7CcnLQnfkeEXJZW-123" style="edgeStyle=orthogonalEdgeStyle;rounded=0;orthogonalLoop=1;jettySize=auto;html=1;exitX=1;exitY=0.5;exitDx=0;exitDy=0;entryX=0;entryY=0.5;entryDx=0;entryDy=0;" parent="1" source="uiPFYnpJoN78IRm5a176-6" target="uiPFYnpJoN78IRm5a176-91" edge="1">
          <mxGeometry relative="1" as="geometry" />
        </mxCell>
        <mxCell id="uiPFYnpJoN78IRm5a176-6" value="Instructions from overlaying controller" style="ellipse;whiteSpace=wrap;html=1;" parent="1" vertex="1">
          <mxGeometry x="60" y="270" width="120" height="60" as="geometry" />
        </mxCell>
        <mxCell id="uiPFYnpJoN78IRm5a176-8" value="Base Plates" style="ellipse;whiteSpace=wrap;html=1;" parent="1" vertex="1">
          <mxGeometry x="760" y="115" width="120" height="60" as="geometry" />
        </mxCell>
        <mxCell id="uiPFYnpJoN78IRm5a176-98" style="edgeStyle=orthogonalEdgeStyle;rounded=0;orthogonalLoop=1;jettySize=auto;html=1;exitX=1;exitY=0.5;exitDx=0;exitDy=0;entryX=0;entryY=0.5;entryDx=0;entryDy=0;" parent="1" source="uiPFYnpJoN78IRm5a176-11" target="uiPFYnpJoN78IRm5a176-97" edge="1">
          <mxGeometry relative="1" as="geometry" />
        </mxCell>
        <mxCell id="1AaqI7CcnLQnfkeEXJZW-128" style="edgeStyle=orthogonalEdgeStyle;rounded=0;orthogonalLoop=1;jettySize=auto;html=1;exitX=0.75;exitY=1;exitDx=0;exitDy=0;entryX=0.115;entryY=-0.007;entryDx=0;entryDy=0;entryPerimeter=0;" parent="1" source="uiPFYnpJoN78IRm5a176-11" target="n7UCwueKNoSF1t-_QFoz-15" edge="1">
          <mxGeometry relative="1" as="geometry" />
        </mxCell>
        <mxCell id="uiPFYnpJoN78IRm5a176-11" value="Grab the base plates" style="rounded=0;whiteSpace=wrap;html=1;" parent="1" vertex="1">
          <mxGeometry x="400" y="175" width="140" height="50" as="geometry" />
        </mxCell>
        <mxCell id="uiPFYnpJoN78IRm5a176-49" style="edgeStyle=orthogonalEdgeStyle;rounded=0;orthogonalLoop=1;jettySize=auto;html=1;exitX=1;exitY=0.5;exitDx=0;exitDy=0;entryX=0;entryY=0.5;entryDx=0;entryDy=0;" parent="1" source="uiPFYnpJoN78IRm5a176-47" target="uiPFYnpJoN78IRm5a176-48" edge="1">
          <mxGeometry relative="1" as="geometry" />
        </mxCell>
        <mxCell id="uiPFYnpJoN78IRm5a176-47" value="Safety signals" style="ellipse;whiteSpace=wrap;html=1;" parent="1" vertex="1">
          <mxGeometry x="60" y="370" width="120" height="60" as="geometry" />
        </mxCell>
        <mxCell id="n7UCwueKNoSF1t-_QFoz-2" style="edgeStyle=orthogonalEdgeStyle;rounded=0;orthogonalLoop=1;jettySize=auto;html=1;exitX=1;exitY=0.5;exitDx=0;exitDy=0;entryX=0.75;entryY=1;entryDx=0;entryDy=0;" parent="1" source="uiPFYnpJoN78IRm5a176-48" target="uiPFYnpJoN78IRm5a176-97" edge="1">
          <mxGeometry relative="1" as="geometry" />
        </mxCell>
        <mxCell id="1AaqI7CcnLQnfkeEXJZW-132" style="edgeStyle=orthogonalEdgeStyle;rounded=0;orthogonalLoop=1;jettySize=auto;html=1;exitX=1;exitY=0.5;exitDx=0;exitDy=0;entryX=0.25;entryY=1;entryDx=0;entryDy=0;" parent="1" source="uiPFYnpJoN78IRm5a176-48" target="uiPFYnpJoN78IRm5a176-11" edge="1">
          <mxGeometry relative="1" as="geometry" />
        </mxCell>
        <mxCell id="uiPFYnpJoN78IRm5a176-48" value="Activate Safety procedures" style="rounded=0;whiteSpace=wrap;html=1;" parent="1" vertex="1">
          <mxGeometry x="230" y="375" width="140" height="50" as="geometry" />
        </mxCell>
        <mxCell id="uiPFYnpJoN78IRm5a176-58" style="edgeStyle=orthogonalEdgeStyle;rounded=0;orthogonalLoop=1;jettySize=auto;html=1;exitX=1;exitY=0.5;exitDx=0;exitDy=0;entryX=0;entryY=0.5;entryDx=0;entryDy=0;" parent="1" source="uiPFYnpJoN78IRm5a176-59" target="uiPFYnpJoN78IRm5a176-69" edge="1">
          <mxGeometry relative="1" as="geometry" />
        </mxCell>
        <mxCell id="uiPFYnpJoN78IRm5a176-59" value="Energy" style="ellipse;whiteSpace=wrap;html=1;" parent="1" vertex="1">
          <mxGeometry x="60" y="560" width="120" height="60" as="geometry" />
        </mxCell>
        <mxCell id="1AaqI7CcnLQnfkeEXJZW-134" style="edgeStyle=orthogonalEdgeStyle;rounded=0;orthogonalLoop=1;jettySize=auto;html=1;exitX=1;exitY=0.5;exitDx=0;exitDy=0;entryX=0;entryY=0.5;entryDx=0;entryDy=0;" parent="1" source="uiPFYnpJoN78IRm5a176-63" target="1AaqI7CcnLQnfkeEXJZW-133" edge="1">
          <mxGeometry relative="1" as="geometry" />
        </mxCell>
        <mxCell id="uiPFYnpJoN78IRm5a176-63" value="Assembled Products" style="ellipse;whiteSpace=wrap;html=1;" parent="1" vertex="1">
          <mxGeometry x="60" y="660" width="120" height="60" as="geometry" />
        </mxCell>
        <mxCell id="uiPFYnpJoN78IRm5a176-64" style="edgeStyle=orthogonalEdgeStyle;rounded=0;orthogonalLoop=1;jettySize=auto;html=1;exitX=1;exitY=0.5;exitDx=0;exitDy=0;entryX=0;entryY=0.5;entryDx=0;entryDy=0;" parent="1" source="uiPFYnpJoN78IRm5a176-65" target="uiPFYnpJoN78IRm5a176-75" edge="1">
          <mxGeometry relative="1" as="geometry" />
        </mxCell>
        <mxCell id="uiPFYnpJoN78IRm5a176-65" value="Instructions from overlaying controller" style="ellipse;whiteSpace=wrap;html=1;" parent="1" vertex="1">
          <mxGeometry x="60" y="760" width="120" height="60" as="geometry" />
        </mxCell>
        <mxCell id="uiPFYnpJoN78IRm5a176-66" value="Base Plates" style="ellipse;whiteSpace=wrap;html=1;" parent="1" vertex="1">
          <mxGeometry x="760" y="600" width="120" height="60" as="geometry" />
        </mxCell>
        <mxCell id="uiPFYnpJoN78IRm5a176-67" value="Blocks" style="ellipse;whiteSpace=wrap;html=1;" parent="1" vertex="1">
          <mxGeometry x="760" y="710" width="120" height="60" as="geometry" />
        </mxCell>
        <mxCell id="uiPFYnpJoN78IRm5a176-88" style="edgeStyle=orthogonalEdgeStyle;rounded=0;orthogonalLoop=1;jettySize=auto;html=1;exitX=1;exitY=0.5;exitDx=0;exitDy=0;entryX=0.5;entryY=0;entryDx=0;entryDy=0;" parent="1" source="uiPFYnpJoN78IRm5a176-69" target="uiPFYnpJoN78IRm5a176-80" edge="1">
          <mxGeometry relative="1" as="geometry" />
        </mxCell>
        <mxCell id="uiPFYnpJoN78IRm5a176-89" style="edgeStyle=orthogonalEdgeStyle;rounded=0;orthogonalLoop=1;jettySize=auto;html=1;exitX=1;exitY=0.5;exitDx=0;exitDy=0;entryX=0.5;entryY=0;entryDx=0;entryDy=0;" parent="1" source="uiPFYnpJoN78IRm5a176-69" target="uiPFYnpJoN78IRm5a176-78" edge="1">
          <mxGeometry relative="1" as="geometry" />
        </mxCell>
        <mxCell id="uiPFYnpJoN78IRm5a176-69" value="Transform into Kinetic Energy" style="rounded=0;whiteSpace=wrap;html=1;" parent="1" vertex="1">
          <mxGeometry x="230" y="565" width="140" height="50" as="geometry" />
        </mxCell>
        <mxCell id="uiPFYnpJoN78IRm5a176-75" value="Interpret the instructions and activate the different processes" style="rounded=0;whiteSpace=wrap;html=1;" parent="1" vertex="1">
          <mxGeometry x="230" y="765" width="140" height="50" as="geometry" />
        </mxCell>
        <mxCell id="uiPFYnpJoN78IRm5a176-94" style="edgeStyle=orthogonalEdgeStyle;rounded=0;orthogonalLoop=1;jettySize=auto;html=1;exitX=1;exitY=0.5;exitDx=0;exitDy=0;entryX=0;entryY=0.5;entryDx=0;entryDy=0;" parent="1" source="uiPFYnpJoN78IRm5a176-78" target="uiPFYnpJoN78IRm5a176-66" edge="1">
          <mxGeometry relative="1" as="geometry">
            <Array as="points">
              <mxPoint x="720" y="690" />
              <mxPoint x="720" y="630" />
            </Array>
          </mxGeometry>
        </mxCell>
        <mxCell id="uiPFYnpJoN78IRm5a176-95" style="edgeStyle=orthogonalEdgeStyle;rounded=0;orthogonalLoop=1;jettySize=auto;html=1;exitX=1;exitY=0.5;exitDx=0;exitDy=0;entryX=0;entryY=0.5;entryDx=0;entryDy=0;" parent="1" source="uiPFYnpJoN78IRm5a176-78" target="uiPFYnpJoN78IRm5a176-67" edge="1">
          <mxGeometry relative="1" as="geometry">
            <Array as="points">
              <mxPoint x="720" y="690" />
              <mxPoint x="720" y="740" />
            </Array>
          </mxGeometry>
        </mxCell>
        <mxCell id="1AaqI7CcnLQnfkeEXJZW-139" style="edgeStyle=orthogonalEdgeStyle;rounded=0;orthogonalLoop=1;jettySize=auto;html=1;exitX=0.25;exitY=1;exitDx=0;exitDy=0;entryX=0.886;entryY=0.024;entryDx=0;entryDy=0;entryPerimeter=0;" parent="1" source="uiPFYnpJoN78IRm5a176-78" target="n7UCwueKNoSF1t-_QFoz-10" edge="1">
          <mxGeometry relative="1" as="geometry" />
        </mxCell>
        <mxCell id="uiPFYnpJoN78IRm5a176-78" value="Organize individual components" style="rounded=0;whiteSpace=wrap;html=1;" parent="1" vertex="1">
          <mxGeometry x="570" y="665" width="140" height="50" as="geometry" />
        </mxCell>
        <mxCell id="uiPFYnpJoN78IRm5a176-79" style="edgeStyle=orthogonalEdgeStyle;rounded=0;orthogonalLoop=1;jettySize=auto;html=1;exitX=1;exitY=0.5;exitDx=0;exitDy=0;entryX=0;entryY=0.5;entryDx=0;entryDy=0;" parent="1" source="uiPFYnpJoN78IRm5a176-80" target="uiPFYnpJoN78IRm5a176-78" edge="1">
          <mxGeometry relative="1" as="geometry" />
        </mxCell>
        <mxCell id="1AaqI7CcnLQnfkeEXJZW-138" style="edgeStyle=orthogonalEdgeStyle;rounded=0;orthogonalLoop=1;jettySize=auto;html=1;exitX=0.75;exitY=1;exitDx=0;exitDy=0;entryX=0.117;entryY=0.024;entryDx=0;entryDy=0;entryPerimeter=0;" parent="1" source="uiPFYnpJoN78IRm5a176-80" target="n7UCwueKNoSF1t-_QFoz-10" edge="1">
          <mxGeometry relative="1" as="geometry" />
        </mxCell>
        <mxCell id="uiPFYnpJoN78IRm5a176-80" value="Disassemble into individual components" style="rounded=0;whiteSpace=wrap;html=1;" parent="1" vertex="1">
          <mxGeometry x="400" y="665" width="140" height="50" as="geometry" />
        </mxCell>
        <mxCell id="uiPFYnpJoN78IRm5a176-81" style="edgeStyle=orthogonalEdgeStyle;rounded=0;orthogonalLoop=1;jettySize=auto;html=1;exitX=1;exitY=0.5;exitDx=0;exitDy=0;entryX=0;entryY=0.5;entryDx=0;entryDy=0;" parent="1" source="uiPFYnpJoN78IRm5a176-82" target="uiPFYnpJoN78IRm5a176-86" edge="1">
          <mxGeometry relative="1" as="geometry" />
        </mxCell>
        <mxCell id="uiPFYnpJoN78IRm5a176-82" value="Safety signals" style="ellipse;whiteSpace=wrap;html=1;" parent="1" vertex="1">
          <mxGeometry x="60" y="860" width="120" height="60" as="geometry" />
        </mxCell>
        <mxCell id="uiPFYnpJoN78IRm5a176-84" style="edgeStyle=orthogonalEdgeStyle;rounded=0;orthogonalLoop=1;jettySize=auto;html=1;exitX=1;exitY=0.5;exitDx=0;exitDy=0;entryX=0.75;entryY=1;entryDx=0;entryDy=0;" parent="1" source="uiPFYnpJoN78IRm5a176-86" target="uiPFYnpJoN78IRm5a176-78" edge="1">
          <mxGeometry relative="1" as="geometry" />
        </mxCell>
        <mxCell id="1AaqI7CcnLQnfkeEXJZW-137" style="edgeStyle=orthogonalEdgeStyle;rounded=0;orthogonalLoop=1;jettySize=auto;html=1;exitX=1;exitY=0.5;exitDx=0;exitDy=0;entryX=0.25;entryY=1;entryDx=0;entryDy=0;" parent="1" source="uiPFYnpJoN78IRm5a176-86" target="uiPFYnpJoN78IRm5a176-80" edge="1">
          <mxGeometry relative="1" as="geometry" />
        </mxCell>
        <mxCell id="uiPFYnpJoN78IRm5a176-86" value="Interpret the signals and activate safety preocedures accordingly" style="rounded=0;whiteSpace=wrap;html=1;" parent="1" vertex="1">
          <mxGeometry x="230" y="865" width="140" height="50" as="geometry" />
        </mxCell>
        <mxCell id="uiPFYnpJoN78IRm5a176-93" style="edgeStyle=orthogonalEdgeStyle;rounded=0;orthogonalLoop=1;jettySize=auto;html=1;exitX=0.5;exitY=1;exitDx=0;exitDy=0;entryX=0.5;entryY=0;entryDx=0;entryDy=0;" parent="1" source="uiPFYnpJoN78IRm5a176-90" target="uiPFYnpJoN78IRm5a176-11" edge="1">
          <mxGeometry relative="1" as="geometry" />
        </mxCell>
        <mxCell id="uiPFYnpJoN78IRm5a176-100" style="edgeStyle=orthogonalEdgeStyle;rounded=0;orthogonalLoop=1;jettySize=auto;html=1;exitX=0.5;exitY=1;exitDx=0;exitDy=0;entryX=0.5;entryY=0;entryDx=0;entryDy=0;" parent="1" source="uiPFYnpJoN78IRm5a176-90" target="uiPFYnpJoN78IRm5a176-97" edge="1">
          <mxGeometry relative="1" as="geometry" />
        </mxCell>
        <mxCell id="uiPFYnpJoN78IRm5a176-90" value="Transform into Kinetic Energy" style="rounded=0;whiteSpace=wrap;html=1;" parent="1" vertex="1">
          <mxGeometry x="230" y="75" width="140" height="50" as="geometry" />
        </mxCell>
        <mxCell id="1AaqI7CcnLQnfkeEXJZW-126" style="edgeStyle=orthogonalEdgeStyle;rounded=0;orthogonalLoop=1;jettySize=auto;html=1;exitX=0.5;exitY=0;exitDx=0;exitDy=0;entryX=0.5;entryY=1;entryDx=0;entryDy=0;" parent="1" source="uiPFYnpJoN78IRm5a176-91" target="1AaqI7CcnLQnfkeEXJZW-121" edge="1">
          <mxGeometry relative="1" as="geometry" />
        </mxCell>
        <mxCell id="uiPFYnpJoN78IRm5a176-91" value="Interpret the instructions and activate the different processes" style="rounded=0;whiteSpace=wrap;html=1;" parent="1" vertex="1">
          <mxGeometry x="230" y="275" width="140" height="50" as="geometry" />
        </mxCell>
        <mxCell id="uiPFYnpJoN78IRm5a176-101" style="edgeStyle=orthogonalEdgeStyle;rounded=0;orthogonalLoop=1;jettySize=auto;html=1;exitX=1;exitY=0.5;exitDx=0;exitDy=0;entryX=0;entryY=0.5;entryDx=0;entryDy=0;" parent="1" source="uiPFYnpJoN78IRm5a176-97" target="uiPFYnpJoN78IRm5a176-8" edge="1">
          <mxGeometry relative="1" as="geometry">
            <Array as="points">
              <mxPoint x="720" y="200" />
              <mxPoint x="720" y="145" />
            </Array>
          </mxGeometry>
        </mxCell>
        <mxCell id="1AaqI7CcnLQnfkeEXJZW-129" style="edgeStyle=orthogonalEdgeStyle;rounded=0;orthogonalLoop=1;jettySize=auto;html=1;exitX=0.25;exitY=1;exitDx=0;exitDy=0;entryX=0.885;entryY=-0.033;entryDx=0;entryDy=0;entryPerimeter=0;" parent="1" source="uiPFYnpJoN78IRm5a176-97" target="n7UCwueKNoSF1t-_QFoz-15" edge="1">
          <mxGeometry relative="1" as="geometry" />
        </mxCell>
        <mxCell id="uiPFYnpJoN78IRm5a176-97" value="Place base plates inside the manufacturing line" style="rounded=0;whiteSpace=wrap;html=1;" parent="1" vertex="1">
          <mxGeometry x="570" y="175" width="140" height="50" as="geometry" />
        </mxCell>
        <mxCell id="n7UCwueKNoSF1t-_QFoz-1" value="Status signals for controller" style="ellipse;whiteSpace=wrap;html=1;" parent="1" vertex="1">
          <mxGeometry x="760" y="295" width="120" height="60" as="geometry" />
        </mxCell>
        <mxCell id="n7UCwueKNoSF1t-_QFoz-7" value="Status signals for controller" style="ellipse;whiteSpace=wrap;html=1;" parent="1" vertex="1">
          <mxGeometry x="760" y="820" width="120" height="60" as="geometry" />
        </mxCell>
        <mxCell id="n7UCwueKNoSF1t-_QFoz-11" style="edgeStyle=orthogonalEdgeStyle;rounded=0;orthogonalLoop=1;jettySize=auto;html=1;exitX=1;exitY=0.5;exitDx=0;exitDy=0;entryX=0;entryY=0.5;entryDx=0;entryDy=0;" parent="1" source="n7UCwueKNoSF1t-_QFoz-10" target="n7UCwueKNoSF1t-_QFoz-7" edge="1">
          <mxGeometry relative="1" as="geometry" />
        </mxCell>
        <mxCell id="n7UCwueKNoSF1t-_QFoz-10" value="Compile information to be sent" style="rounded=0;whiteSpace=wrap;html=1;" parent="1" vertex="1">
          <mxGeometry x="490" y="825" width="130" height="50" as="geometry" />
        </mxCell>
        <mxCell id="n7UCwueKNoSF1t-_QFoz-16" style="edgeStyle=orthogonalEdgeStyle;rounded=0;orthogonalLoop=1;jettySize=auto;html=1;exitX=1;exitY=0.5;exitDx=0;exitDy=0;entryX=0;entryY=0.5;entryDx=0;entryDy=0;" parent="1" source="n7UCwueKNoSF1t-_QFoz-15" target="n7UCwueKNoSF1t-_QFoz-1" edge="1">
          <mxGeometry relative="1" as="geometry" />
        </mxCell>
        <mxCell id="n7UCwueKNoSF1t-_QFoz-15" value="Compile information to be sent" style="rounded=0;whiteSpace=wrap;html=1;" parent="1" vertex="1">
          <mxGeometry x="490" y="300" width="130" height="50" as="geometry" />
        </mxCell>
        <mxCell id="n7UCwueKNoSF1t-_QFoz-19" value="" style="rounded=1;whiteSpace=wrap;html=1;" parent="1" vertex="1">
          <mxGeometry x="1120" y="40" width="540" height="420" as="geometry" />
        </mxCell>
        <mxCell id="n7UCwueKNoSF1t-_QFoz-64" style="edgeStyle=orthogonalEdgeStyle;rounded=0;orthogonalLoop=1;jettySize=auto;html=1;exitX=1;exitY=0.5;exitDx=0;exitDy=0;entryX=0;entryY=0.5;entryDx=0;entryDy=0;" parent="1" source="n7UCwueKNoSF1t-_QFoz-21" target="n7UCwueKNoSF1t-_QFoz-63" edge="1">
          <mxGeometry relative="1" as="geometry" />
        </mxCell>
        <mxCell id="n7UCwueKNoSF1t-_QFoz-21" value="Energy" style="ellipse;whiteSpace=wrap;html=1;" parent="1" vertex="1">
          <mxGeometry x="980" y="70" width="120" height="60" as="geometry" />
        </mxCell>
        <mxCell id="n7UCwueKNoSF1t-_QFoz-65" style="edgeStyle=orthogonalEdgeStyle;rounded=0;orthogonalLoop=1;jettySize=auto;html=1;exitX=1;exitY=0.5;exitDx=0;exitDy=0;entryX=0;entryY=0.5;entryDx=0;entryDy=0;" parent="1" source="n7UCwueKNoSF1t-_QFoz-23" target="n7UCwueKNoSF1t-_QFoz-60" edge="1">
          <mxGeometry relative="1" as="geometry" />
        </mxCell>
        <mxCell id="n7UCwueKNoSF1t-_QFoz-23" value="Base Plates" style="ellipse;whiteSpace=wrap;html=1;" parent="1" vertex="1">
          <mxGeometry x="980" y="170" width="120" height="60" as="geometry" />
        </mxCell>
        <mxCell id="n7UCwueKNoSF1t-_QFoz-48" style="edgeStyle=orthogonalEdgeStyle;rounded=0;orthogonalLoop=1;jettySize=auto;html=1;exitX=1;exitY=0.5;exitDx=0;exitDy=0;entryX=0;entryY=0.25;entryDx=0;entryDy=0;" parent="1" source="n7UCwueKNoSF1t-_QFoz-25" target="n7UCwueKNoSF1t-_QFoz-47" edge="1">
          <mxGeometry relative="1" as="geometry" />
        </mxCell>
        <mxCell id="n7UCwueKNoSF1t-_QFoz-25" value="Control Instructions" style="ellipse;whiteSpace=wrap;html=1;" parent="1" vertex="1">
          <mxGeometry x="980" y="270" width="120" height="60" as="geometry" />
        </mxCell>
        <mxCell id="n7UCwueKNoSF1t-_QFoz-26" value="Base Plates" style="ellipse;whiteSpace=wrap;html=1;" parent="1" vertex="1">
          <mxGeometry x="1680" y="125" width="120" height="60" as="geometry" />
        </mxCell>
        <mxCell id="n7UCwueKNoSF1t-_QFoz-49" style="edgeStyle=orthogonalEdgeStyle;rounded=0;orthogonalLoop=1;jettySize=auto;html=1;exitX=1;exitY=0.5;exitDx=0;exitDy=0;entryX=0;entryY=0.75;entryDx=0;entryDy=0;" parent="1" source="n7UCwueKNoSF1t-_QFoz-31" target="n7UCwueKNoSF1t-_QFoz-47" edge="1">
          <mxGeometry relative="1" as="geometry" />
        </mxCell>
        <mxCell id="n7UCwueKNoSF1t-_QFoz-31" value="Safety signals" style="ellipse;whiteSpace=wrap;html=1;" parent="1" vertex="1">
          <mxGeometry x="980" y="370" width="120" height="60" as="geometry" />
        </mxCell>
        <mxCell id="n7UCwueKNoSF1t-_QFoz-44" value="Status signals for controller" style="ellipse;whiteSpace=wrap;html=1;" parent="1" vertex="1">
          <mxGeometry x="1680" y="335" width="120" height="60" as="geometry" />
        </mxCell>
        <mxCell id="n7UCwueKNoSF1t-_QFoz-59" style="edgeStyle=orthogonalEdgeStyle;rounded=0;orthogonalLoop=1;jettySize=auto;html=1;exitX=1;exitY=0.5;exitDx=0;exitDy=0;entryX=0;entryY=0.5;entryDx=0;entryDy=0;" parent="1" source="n7UCwueKNoSF1t-_QFoz-47" target="n7UCwueKNoSF1t-_QFoz-44" edge="1">
          <mxGeometry relative="1" as="geometry" />
        </mxCell>
        <mxCell id="n7UCwueKNoSF1t-_QFoz-71" style="edgeStyle=orthogonalEdgeStyle;rounded=0;orthogonalLoop=1;jettySize=auto;html=1;exitX=0.75;exitY=0;exitDx=0;exitDy=0;entryX=0.75;entryY=1;entryDx=0;entryDy=0;" parent="1" source="n7UCwueKNoSF1t-_QFoz-47" target="n7UCwueKNoSF1t-_QFoz-63" edge="1">
          <mxGeometry relative="1" as="geometry" />
        </mxCell>
        <mxCell id="n7UCwueKNoSF1t-_QFoz-47" value="PD Control Inteface" style="rounded=0;whiteSpace=wrap;html=1;" parent="1" vertex="1">
          <mxGeometry x="1180" y="325" width="150" height="50" as="geometry" />
        </mxCell>
        <mxCell id="n7UCwueKNoSF1t-_QFoz-61" style="edgeStyle=orthogonalEdgeStyle;rounded=0;orthogonalLoop=1;jettySize=auto;html=1;exitX=1;exitY=0.5;exitDx=0;exitDy=0;entryX=0;entryY=0.5;entryDx=0;entryDy=0;" parent="1" source="n7UCwueKNoSF1t-_QFoz-60" target="n7UCwueKNoSF1t-_QFoz-26" edge="1">
          <mxGeometry relative="1" as="geometry" />
        </mxCell>
        <mxCell id="n7UCwueKNoSF1t-_QFoz-60" value="Robot Arm" style="rounded=0;whiteSpace=wrap;html=1;" parent="1" vertex="1">
          <mxGeometry x="1340" y="145" width="250" height="110" as="geometry" />
        </mxCell>
        <mxCell id="n7UCwueKNoSF1t-_QFoz-66" style="edgeStyle=orthogonalEdgeStyle;rounded=0;orthogonalLoop=1;jettySize=auto;html=1;exitX=1;exitY=0.5;exitDx=0;exitDy=0;entryX=0.5;entryY=0;entryDx=0;entryDy=0;" parent="1" source="n7UCwueKNoSF1t-_QFoz-63" target="n7UCwueKNoSF1t-_QFoz-60" edge="1">
          <mxGeometry relative="1" as="geometry" />
        </mxCell>
        <mxCell id="n7UCwueKNoSF1t-_QFoz-69" style="edgeStyle=orthogonalEdgeStyle;rounded=0;orthogonalLoop=1;jettySize=auto;html=1;exitX=0.25;exitY=1;exitDx=0;exitDy=0;entryX=0.25;entryY=0;entryDx=0;entryDy=0;" parent="1" source="n7UCwueKNoSF1t-_QFoz-63" target="n7UCwueKNoSF1t-_QFoz-47" edge="1">
          <mxGeometry relative="1" as="geometry" />
        </mxCell>
        <mxCell id="n7UCwueKNoSF1t-_QFoz-63" value="Robot Built In Controller" style="rounded=0;whiteSpace=wrap;html=1;" parent="1" vertex="1">
          <mxGeometry x="1180" y="80" width="150" height="40" as="geometry" />
        </mxCell>
        <mxCell id="n7UCwueKNoSF1t-_QFoz-104" value="Feed base plates to the manufacturing line" style="text;html=1;strokeColor=none;fillColor=none;align=left;verticalAlign=middle;whiteSpace=wrap;rounded=0;dashed=1;strokeWidth=2;fontStyle=1;fontColor=#3333FF;fontSize=12;" parent="1" vertex="1">
          <mxGeometry x="480" y="65" width="250" height="30" as="geometry" />
        </mxCell>
        <mxCell id="n7UCwueKNoSF1t-_QFoz-105" value="Control system&#39;s operations" style="text;html=1;strokeColor=none;fillColor=none;align=left;verticalAlign=middle;whiteSpace=wrap;rounded=0;dashed=1;strokeWidth=2;fontStyle=1;fontColor=#009900;fontSize=12;" parent="1" vertex="1">
          <mxGeometry x="560" y="405" width="170" height="30" as="geometry" />
        </mxCell>
        <mxCell id="n7UCwueKNoSF1t-_QFoz-108" value="Dissassemble products and organize the inidividual components" style="text;html=1;strokeColor=none;fillColor=none;align=right;verticalAlign=middle;whiteSpace=wrap;rounded=0;dashed=1;strokeWidth=2;fontStyle=1;fontColor=#3333FF;fontSize=12;" parent="1" vertex="1">
          <mxGeometry x="410" y="550" width="310" height="30" as="geometry" />
        </mxCell>
        <mxCell id="n7UCwueKNoSF1t-_QFoz-109" value="Control system&#39;s operations" style="text;html=1;strokeColor=none;fillColor=none;align=left;verticalAlign=middle;whiteSpace=wrap;rounded=0;dashed=1;strokeWidth=2;fontStyle=1;fontColor=#009900;fontSize=12;" parent="1" vertex="1">
          <mxGeometry x="560" y="900" width="170" height="30" as="geometry" />
        </mxCell>
        <mxCell id="n7UCwueKNoSF1t-_QFoz-110" value="" style="rounded=1;whiteSpace=wrap;html=1;fillColor=none;" parent="1" vertex="1">
          <mxGeometry x="1120" y="510" width="340" height="380" as="geometry" />
        </mxCell>
        <mxCell id="1AaqI7CcnLQnfkeEXJZW-11" style="edgeStyle=orthogonalEdgeStyle;rounded=0;orthogonalLoop=1;jettySize=auto;html=1;exitX=1;exitY=0.5;exitDx=0;exitDy=0;entryX=0;entryY=0.25;entryDx=0;entryDy=0;" parent="1" source="n7UCwueKNoSF1t-_QFoz-112" target="n7UCwueKNoSF1t-_QFoz-131" edge="1">
          <mxGeometry relative="1" as="geometry">
            <Array as="points">
              <mxPoint x="1150" y="540" />
              <mxPoint x="1150" y="570" />
            </Array>
          </mxGeometry>
        </mxCell>
        <mxCell id="n7UCwueKNoSF1t-_QFoz-112" value="Base Plates" style="ellipse;whiteSpace=wrap;html=1;" parent="1" vertex="1">
          <mxGeometry x="980" y="510" width="120" height="60" as="geometry" />
        </mxCell>
        <mxCell id="1AaqI7CcnLQnfkeEXJZW-9" style="edgeStyle=orthogonalEdgeStyle;rounded=0;orthogonalLoop=1;jettySize=auto;html=1;exitX=1;exitY=0.5;exitDx=0;exitDy=0;entryX=0;entryY=0.75;entryDx=0;entryDy=0;" parent="1" source="n7UCwueKNoSF1t-_QFoz-114" target="n7UCwueKNoSF1t-_QFoz-131" edge="1">
          <mxGeometry relative="1" as="geometry">
            <Array as="points">
              <mxPoint x="1150" y="620" />
              <mxPoint x="1150" y="600" />
            </Array>
          </mxGeometry>
        </mxCell>
        <mxCell id="1AaqI7CcnLQnfkeEXJZW-10" style="edgeStyle=orthogonalEdgeStyle;rounded=0;orthogonalLoop=1;jettySize=auto;html=1;exitX=1;exitY=0.5;exitDx=0;exitDy=0;entryX=0;entryY=0.25;entryDx=0;entryDy=0;" parent="1" source="n7UCwueKNoSF1t-_QFoz-114" target="n7UCwueKNoSF1t-_QFoz-132" edge="1">
          <mxGeometry relative="1" as="geometry">
            <Array as="points">
              <mxPoint x="1150" y="620" />
              <mxPoint x="1150" y="670" />
            </Array>
          </mxGeometry>
        </mxCell>
        <mxCell id="n7UCwueKNoSF1t-_QFoz-114" value="Energy" style="ellipse;whiteSpace=wrap;html=1;" parent="1" vertex="1">
          <mxGeometry x="980" y="590" width="120" height="60" as="geometry" />
        </mxCell>
        <mxCell id="n7UCwueKNoSF1t-_QFoz-136" style="edgeStyle=orthogonalEdgeStyle;rounded=0;orthogonalLoop=1;jettySize=auto;html=1;exitX=1;exitY=0.5;exitDx=0;exitDy=0;entryX=0;entryY=0.5;entryDx=0;entryDy=0;fontSize=12;fontColor=default;" parent="1" source="n7UCwueKNoSF1t-_QFoz-116" target="n7UCwueKNoSF1t-_QFoz-133" edge="1">
          <mxGeometry relative="1" as="geometry" />
        </mxCell>
        <mxCell id="n7UCwueKNoSF1t-_QFoz-116" value="Instructions from overlaying controller" style="ellipse;whiteSpace=wrap;html=1;" parent="1" vertex="1">
          <mxGeometry x="980" y="750" width="120" height="60" as="geometry" />
        </mxCell>
        <mxCell id="n7UCwueKNoSF1t-_QFoz-117" value="Base Plates" style="ellipse;whiteSpace=wrap;html=1;" parent="1" vertex="1">
          <mxGeometry x="1480" y="555" width="120" height="60" as="geometry" />
        </mxCell>
        <mxCell id="n7UCwueKNoSF1t-_QFoz-137" style="edgeStyle=orthogonalEdgeStyle;rounded=0;orthogonalLoop=1;jettySize=auto;html=1;exitX=1;exitY=0.5;exitDx=0;exitDy=0;entryX=0;entryY=0.5;entryDx=0;entryDy=0;fontSize=12;fontColor=default;" parent="1" source="n7UCwueKNoSF1t-_QFoz-119" target="n7UCwueKNoSF1t-_QFoz-133" edge="1">
          <mxGeometry relative="1" as="geometry" />
        </mxCell>
        <mxCell id="n7UCwueKNoSF1t-_QFoz-119" value="Safety Signals" style="ellipse;whiteSpace=wrap;html=1;" parent="1" vertex="1">
          <mxGeometry x="980" y="825" width="120" height="60" as="geometry" />
        </mxCell>
        <mxCell id="n7UCwueKNoSF1t-_QFoz-120" value="Status signals for overlaying controller" style="ellipse;whiteSpace=wrap;html=1;" parent="1" vertex="1">
          <mxGeometry x="1480" y="790" width="120" height="60" as="geometry" />
        </mxCell>
        <mxCell id="n7UCwueKNoSF1t-_QFoz-129" value="Blocks" style="ellipse;whiteSpace=wrap;html=1;" parent="1" vertex="1">
          <mxGeometry x="1480" y="670" width="120" height="60" as="geometry" />
        </mxCell>
        <mxCell id="n7UCwueKNoSF1t-_QFoz-147" style="edgeStyle=orthogonalEdgeStyle;rounded=0;orthogonalLoop=1;jettySize=auto;html=1;exitX=1;exitY=0.5;exitDx=0;exitDy=0;entryX=0;entryY=0.75;entryDx=0;entryDy=0;fontSize=12;fontColor=default;" parent="1" source="n7UCwueKNoSF1t-_QFoz-130" target="n7UCwueKNoSF1t-_QFoz-132" edge="1">
          <mxGeometry relative="1" as="geometry" />
        </mxCell>
        <mxCell id="n7UCwueKNoSF1t-_QFoz-130" value="Assembled Products" style="ellipse;whiteSpace=wrap;html=1;" parent="1" vertex="1">
          <mxGeometry x="980" y="670" width="120" height="60" as="geometry" />
        </mxCell>
        <mxCell id="1AaqI7CcnLQnfkeEXJZW-7" style="edgeStyle=orthogonalEdgeStyle;rounded=0;orthogonalLoop=1;jettySize=auto;html=1;exitX=1;exitY=0.5;exitDx=0;exitDy=0;entryX=0.037;entryY=0.29;entryDx=0;entryDy=0;entryPerimeter=0;" parent="1" source="n7UCwueKNoSF1t-_QFoz-131" target="n7UCwueKNoSF1t-_QFoz-117" edge="1">
          <mxGeometry relative="1" as="geometry" />
        </mxCell>
        <mxCell id="1AaqI7CcnLQnfkeEXJZW-15" style="edgeStyle=orthogonalEdgeStyle;rounded=0;orthogonalLoop=1;jettySize=auto;html=1;exitX=0.194;exitY=0.997;exitDx=0;exitDy=0;entryX=0.142;entryY=0.022;entryDx=0;entryDy=0;entryPerimeter=0;exitPerimeter=0;" parent="1" source="n7UCwueKNoSF1t-_QFoz-131" target="n7UCwueKNoSF1t-_QFoz-133" edge="1">
          <mxGeometry relative="1" as="geometry" />
        </mxCell>
        <mxCell id="n7UCwueKNoSF1t-_QFoz-131" value="Feeding the manufacturing line" style="rounded=0;whiteSpace=wrap;html=1;strokeColor=#000000;strokeWidth=1;fontSize=12;fontColor=default;fillColor=none;" parent="1" vertex="1">
          <mxGeometry x="1190" y="555" width="180" height="60" as="geometry" />
        </mxCell>
        <mxCell id="1AaqI7CcnLQnfkeEXJZW-12" style="edgeStyle=orthogonalEdgeStyle;rounded=0;orthogonalLoop=1;jettySize=auto;html=1;exitX=1;exitY=0.5;exitDx=0;exitDy=0;entryX=0;entryY=0.5;entryDx=0;entryDy=0;" parent="1" source="n7UCwueKNoSF1t-_QFoz-132" target="n7UCwueKNoSF1t-_QFoz-129" edge="1">
          <mxGeometry relative="1" as="geometry" />
        </mxCell>
        <mxCell id="1AaqI7CcnLQnfkeEXJZW-16" style="edgeStyle=orthogonalEdgeStyle;rounded=0;orthogonalLoop=1;jettySize=auto;html=1;exitX=0.547;exitY=1.013;exitDx=0;exitDy=0;entryX=0.828;entryY=-0.005;entryDx=0;entryDy=0;entryPerimeter=0;exitPerimeter=0;" parent="1" source="n7UCwueKNoSF1t-_QFoz-132" target="n7UCwueKNoSF1t-_QFoz-133" edge="1">
          <mxGeometry relative="1" as="geometry" />
        </mxCell>
        <mxCell id="XreJuHorq-Wm_r-E-YRh-2" style="edgeStyle=orthogonalEdgeStyle;rounded=0;orthogonalLoop=1;jettySize=auto;html=1;exitX=1;exitY=0.5;exitDx=0;exitDy=0;entryX=0.045;entryY=0.735;entryDx=0;entryDy=0;entryPerimeter=0;" parent="1" source="n7UCwueKNoSF1t-_QFoz-132" target="n7UCwueKNoSF1t-_QFoz-117" edge="1">
          <mxGeometry relative="1" as="geometry">
            <Array as="points">
              <mxPoint x="1445" y="685" />
              <mxPoint x="1445" y="599" />
            </Array>
          </mxGeometry>
        </mxCell>
        <mxCell id="n7UCwueKNoSF1t-_QFoz-132" value="&quot;Recycling&quot; the finished products" style="rounded=0;whiteSpace=wrap;html=1;strokeColor=#000000;strokeWidth=1;fontSize=12;fontColor=default;fillColor=none;" parent="1" vertex="1">
          <mxGeometry x="1250" y="655" width="180" height="60" as="geometry" />
        </mxCell>
        <mxCell id="n7UCwueKNoSF1t-_QFoz-138" style="edgeStyle=orthogonalEdgeStyle;rounded=0;orthogonalLoop=1;jettySize=auto;html=1;exitX=1;exitY=0.5;exitDx=0;exitDy=0;entryX=0;entryY=0.5;entryDx=0;entryDy=0;fontSize=12;fontColor=default;" parent="1" source="n7UCwueKNoSF1t-_QFoz-133" target="n7UCwueKNoSF1t-_QFoz-120" edge="1">
          <mxGeometry relative="1" as="geometry" />
        </mxCell>
        <mxCell id="1AaqI7CcnLQnfkeEXJZW-17" style="edgeStyle=orthogonalEdgeStyle;rounded=0;orthogonalLoop=1;jettySize=auto;html=1;exitX=0.053;exitY=-0.014;exitDx=0;exitDy=0;entryX=0.111;entryY=0.997;entryDx=0;entryDy=0;entryPerimeter=0;exitPerimeter=0;" parent="1" source="n7UCwueKNoSF1t-_QFoz-133" target="n7UCwueKNoSF1t-_QFoz-131" edge="1">
          <mxGeometry relative="1" as="geometry" />
        </mxCell>
        <mxCell id="1AaqI7CcnLQnfkeEXJZW-19" style="edgeStyle=orthogonalEdgeStyle;rounded=0;orthogonalLoop=1;jettySize=auto;html=1;exitX=0.932;exitY=-0.024;exitDx=0;exitDy=0;entryX=0.658;entryY=1.003;entryDx=0;entryDy=0;entryPerimeter=0;exitPerimeter=0;" parent="1" source="n7UCwueKNoSF1t-_QFoz-133" target="n7UCwueKNoSF1t-_QFoz-132" edge="1">
          <mxGeometry relative="1" as="geometry" />
        </mxCell>
        <mxCell id="n7UCwueKNoSF1t-_QFoz-133" value="Controlling the system operations" style="rounded=0;whiteSpace=wrap;html=1;strokeColor=#000000;strokeWidth=1;fontSize=12;fontColor=default;fillColor=none;" parent="1" vertex="1">
          <mxGeometry x="1200" y="790" width="180" height="60" as="geometry" />
        </mxCell>
        <mxCell id="1AaqI7CcnLQnfkeEXJZW-20" value="" style="rounded=1;whiteSpace=wrap;html=1;fillColor=none;" parent="1" vertex="1">
          <mxGeometry x="2040" y="40" width="520" height="220" as="geometry" />
        </mxCell>
        <mxCell id="1AaqI7CcnLQnfkeEXJZW-22" style="edgeStyle=orthogonalEdgeStyle;rounded=0;orthogonalLoop=1;jettySize=auto;html=1;exitX=1;exitY=0.5;exitDx=0;exitDy=0;entryX=0;entryY=0.5;entryDx=0;entryDy=0;" parent="1" source="1AaqI7CcnLQnfkeEXJZW-23" edge="1">
          <mxGeometry relative="1" as="geometry">
            <mxPoint x="2090" y="100" as="targetPoint" />
          </mxGeometry>
        </mxCell>
        <mxCell id="1AaqI7CcnLQnfkeEXJZW-23" value="Energy" style="ellipse;whiteSpace=wrap;html=1;" parent="1" vertex="1">
          <mxGeometry x="1900" y="70" width="120" height="60" as="geometry" />
        </mxCell>
        <mxCell id="1AaqI7CcnLQnfkeEXJZW-53" style="edgeStyle=orthogonalEdgeStyle;rounded=0;orthogonalLoop=1;jettySize=auto;html=1;exitX=1;exitY=0.5;exitDx=0;exitDy=0;entryX=0;entryY=0.5;entryDx=0;entryDy=0;" parent="1" source="1AaqI7CcnLQnfkeEXJZW-25" target="1AaqI7CcnLQnfkeEXJZW-52" edge="1">
          <mxGeometry relative="1" as="geometry" />
        </mxCell>
        <mxCell id="1AaqI7CcnLQnfkeEXJZW-25" value="Base Plates" style="ellipse;whiteSpace=wrap;html=1;" parent="1" vertex="1">
          <mxGeometry x="1900" y="170" width="120" height="60" as="geometry" />
        </mxCell>
        <mxCell id="1AaqI7CcnLQnfkeEXJZW-28" value="Base Plates" style="ellipse;whiteSpace=wrap;html=1;" parent="1" vertex="1">
          <mxGeometry x="2580" y="115" width="120" height="60" as="geometry" />
        </mxCell>
        <mxCell id="1AaqI7CcnLQnfkeEXJZW-29" style="edgeStyle=orthogonalEdgeStyle;rounded=0;orthogonalLoop=1;jettySize=auto;html=1;exitX=1;exitY=0.5;exitDx=0;exitDy=0;entryX=0;entryY=0.5;entryDx=0;entryDy=0;" parent="1" source="1AaqI7CcnLQnfkeEXJZW-31" target="1AaqI7CcnLQnfkeEXJZW-45" edge="1">
          <mxGeometry relative="1" as="geometry" />
        </mxCell>
        <mxCell id="1AaqI7CcnLQnfkeEXJZW-31" value="Grab the base plate" style="rounded=0;whiteSpace=wrap;html=1;" parent="1" vertex="1">
          <mxGeometry x="2230" y="175" width="140" height="50" as="geometry" />
        </mxCell>
        <mxCell id="1AaqI7CcnLQnfkeEXJZW-37" style="edgeStyle=orthogonalEdgeStyle;rounded=0;orthogonalLoop=1;jettySize=auto;html=1;exitX=0.5;exitY=1;exitDx=0;exitDy=0;entryX=0.5;entryY=0;entryDx=0;entryDy=0;" parent="1" source="1AaqI7CcnLQnfkeEXJZW-39" target="1AaqI7CcnLQnfkeEXJZW-31" edge="1">
          <mxGeometry relative="1" as="geometry" />
        </mxCell>
        <mxCell id="1AaqI7CcnLQnfkeEXJZW-38" style="edgeStyle=orthogonalEdgeStyle;rounded=0;orthogonalLoop=1;jettySize=auto;html=1;exitX=0.5;exitY=1;exitDx=0;exitDy=0;entryX=0.5;entryY=0;entryDx=0;entryDy=0;" parent="1" source="1AaqI7CcnLQnfkeEXJZW-39" target="1AaqI7CcnLQnfkeEXJZW-45" edge="1">
          <mxGeometry relative="1" as="geometry" />
        </mxCell>
        <mxCell id="1AaqI7CcnLQnfkeEXJZW-39" value="Transform into Kinetic Energy" style="rounded=0;whiteSpace=wrap;html=1;" parent="1" vertex="1">
          <mxGeometry x="2060" y="75" width="140" height="50" as="geometry" />
        </mxCell>
        <mxCell id="1AaqI7CcnLQnfkeEXJZW-43" style="edgeStyle=orthogonalEdgeStyle;rounded=0;orthogonalLoop=1;jettySize=auto;html=1;exitX=1;exitY=0.5;exitDx=0;exitDy=0;entryX=0;entryY=0.5;entryDx=0;entryDy=0;" parent="1" source="1AaqI7CcnLQnfkeEXJZW-45" target="1AaqI7CcnLQnfkeEXJZW-28" edge="1">
          <mxGeometry x="0.3684" y="15" relative="1" as="geometry">
            <Array as="points">
              <mxPoint x="2550" y="200" />
              <mxPoint x="2550" y="145" />
            </Array>
            <mxPoint as="offset" />
          </mxGeometry>
        </mxCell>
        <mxCell id="1AaqI7CcnLQnfkeEXJZW-45" value="Place base plates inside the manufacturing line" style="rounded=0;whiteSpace=wrap;html=1;" parent="1" vertex="1">
          <mxGeometry x="2400" y="175" width="140" height="50" as="geometry" />
        </mxCell>
        <mxCell id="1AaqI7CcnLQnfkeEXJZW-54" style="edgeStyle=orthogonalEdgeStyle;rounded=0;orthogonalLoop=1;jettySize=auto;html=1;exitX=1;exitY=0.5;exitDx=0;exitDy=0;entryX=0;entryY=0.5;entryDx=0;entryDy=0;" parent="1" source="1AaqI7CcnLQnfkeEXJZW-52" target="1AaqI7CcnLQnfkeEXJZW-31" edge="1">
          <mxGeometry relative="1" as="geometry" />
        </mxCell>
        <mxCell id="1AaqI7CcnLQnfkeEXJZW-52" value="Locate the next base plate" style="rounded=0;whiteSpace=wrap;html=1;" parent="1" vertex="1">
          <mxGeometry x="2060" y="175" width="140" height="50" as="geometry" />
        </mxCell>
        <mxCell id="1AaqI7CcnLQnfkeEXJZW-56" value="" style="rounded=1;whiteSpace=wrap;html=1;fillColor=none;" parent="1" vertex="1">
          <mxGeometry x="2030" y="285" width="540" height="230" as="geometry" />
        </mxCell>
        <mxCell id="1AaqI7CcnLQnfkeEXJZW-119" style="edgeStyle=orthogonalEdgeStyle;rounded=0;orthogonalLoop=1;jettySize=auto;html=1;exitX=1;exitY=0.5;exitDx=0;exitDy=0;entryX=0;entryY=0.5;entryDx=0;entryDy=0;" parent="1" source="1AaqI7CcnLQnfkeEXJZW-62" target="1AaqI7CcnLQnfkeEXJZW-77" edge="1">
          <mxGeometry relative="1" as="geometry" />
        </mxCell>
        <mxCell id="1AaqI7CcnLQnfkeEXJZW-62" value="Control Instructions" style="ellipse;whiteSpace=wrap;html=1;" parent="1" vertex="1">
          <mxGeometry x="1890" y="325" width="120" height="60" as="geometry" />
        </mxCell>
        <mxCell id="1AaqI7CcnLQnfkeEXJZW-67" style="edgeStyle=orthogonalEdgeStyle;rounded=0;orthogonalLoop=1;jettySize=auto;html=1;exitX=1;exitY=0.5;exitDx=0;exitDy=0;entryX=0;entryY=0.5;entryDx=0;entryDy=0;" parent="1" source="1AaqI7CcnLQnfkeEXJZW-68" target="1AaqI7CcnLQnfkeEXJZW-71" edge="1">
          <mxGeometry relative="1" as="geometry" />
        </mxCell>
        <mxCell id="1AaqI7CcnLQnfkeEXJZW-68" value="Safety signals" style="ellipse;whiteSpace=wrap;html=1;" parent="1" vertex="1">
          <mxGeometry x="1890" y="425" width="120" height="60" as="geometry" />
        </mxCell>
        <mxCell id="1AaqI7CcnLQnfkeEXJZW-71" value="Activate Safety procedures" style="rounded=0;whiteSpace=wrap;html=1;" parent="1" vertex="1">
          <mxGeometry x="2070" y="430" width="140" height="50" as="geometry" />
        </mxCell>
        <mxCell id="1AaqI7CcnLQnfkeEXJZW-120" style="edgeStyle=orthogonalEdgeStyle;rounded=0;orthogonalLoop=1;jettySize=auto;html=1;exitX=1;exitY=0.5;exitDx=0;exitDy=0;entryX=0;entryY=0.5;entryDx=0;entryDy=0;" parent="1" source="1AaqI7CcnLQnfkeEXJZW-77" target="1AaqI7CcnLQnfkeEXJZW-118" edge="1">
          <mxGeometry relative="1" as="geometry" />
        </mxCell>
        <mxCell id="1AaqI7CcnLQnfkeEXJZW-77" value="Interpret instructions and information" style="rounded=0;whiteSpace=wrap;html=1;" parent="1" vertex="1">
          <mxGeometry x="2060" y="330" width="140" height="50" as="geometry" />
        </mxCell>
        <mxCell id="1AaqI7CcnLQnfkeEXJZW-81" value="Status signals for controller" style="ellipse;whiteSpace=wrap;html=1;" parent="1" vertex="1">
          <mxGeometry x="2590" y="390" width="120" height="60" as="geometry" />
        </mxCell>
        <mxCell id="1AaqI7CcnLQnfkeEXJZW-82" style="edgeStyle=orthogonalEdgeStyle;rounded=0;orthogonalLoop=1;jettySize=auto;html=1;exitX=1;exitY=0.5;exitDx=0;exitDy=0;entryX=0;entryY=0.5;entryDx=0;entryDy=0;" parent="1" source="1AaqI7CcnLQnfkeEXJZW-83" target="1AaqI7CcnLQnfkeEXJZW-81" edge="1">
          <mxGeometry relative="1" as="geometry" />
        </mxCell>
        <mxCell id="1AaqI7CcnLQnfkeEXJZW-83" value="Compile information to be sent to the controller" style="rounded=0;whiteSpace=wrap;html=1;" parent="1" vertex="1">
          <mxGeometry x="2340" y="395" width="140" height="50" as="geometry" />
        </mxCell>
        <mxCell id="1AaqI7CcnLQnfkeEXJZW-118" value="Activate the corresponding process" style="rounded=0;whiteSpace=wrap;html=1;" parent="1" vertex="1">
          <mxGeometry x="2230" y="330" width="140" height="50" as="geometry" />
        </mxCell>
        <mxCell id="1AaqI7CcnLQnfkeEXJZW-125" style="edgeStyle=orthogonalEdgeStyle;rounded=0;orthogonalLoop=1;jettySize=auto;html=1;exitX=1;exitY=0.5;exitDx=0;exitDy=0;entryX=0;entryY=0.5;entryDx=0;entryDy=0;" parent="1" source="1AaqI7CcnLQnfkeEXJZW-121" target="uiPFYnpJoN78IRm5a176-11" edge="1">
          <mxGeometry relative="1" as="geometry" />
        </mxCell>
        <mxCell id="1AaqI7CcnLQnfkeEXJZW-121" value="Locate the next base plate" style="rounded=0;whiteSpace=wrap;html=1;" parent="1" vertex="1">
          <mxGeometry x="230" y="175" width="140" height="50" as="geometry" />
        </mxCell>
        <mxCell id="1AaqI7CcnLQnfkeEXJZW-135" style="edgeStyle=orthogonalEdgeStyle;rounded=0;orthogonalLoop=1;jettySize=auto;html=1;exitX=1;exitY=0.5;exitDx=0;exitDy=0;entryX=0;entryY=0.5;entryDx=0;entryDy=0;" parent="1" source="1AaqI7CcnLQnfkeEXJZW-133" target="uiPFYnpJoN78IRm5a176-80" edge="1">
          <mxGeometry relative="1" as="geometry" />
        </mxCell>
        <mxCell id="1AaqI7CcnLQnfkeEXJZW-133" value="Get information about the different parts" style="rounded=0;whiteSpace=wrap;html=1;" parent="1" vertex="1">
          <mxGeometry x="230" y="665" width="140" height="50" as="geometry" />
        </mxCell>
        <mxCell id="i0lhiT4KbpCjelZSpUZJ-87" style="edgeStyle=orthogonalEdgeStyle;rounded=0;orthogonalLoop=1;jettySize=auto;html=1;exitX=1;exitY=0.5;exitDx=0;exitDy=0;entryX=0;entryY=0.25;entryDx=0;entryDy=0;" parent="1" source="i0lhiT4KbpCjelZSpUZJ-29" target="i0lhiT4KbpCjelZSpUZJ-81" edge="1">
          <mxGeometry relative="1" as="geometry" />
        </mxCell>
        <mxCell id="i0lhiT4KbpCjelZSpUZJ-29" value="Base Plates" style="ellipse;whiteSpace=wrap;html=1;" parent="1" vertex="1">
          <mxGeometry x="1890" y="560" width="120" height="60" as="geometry" />
        </mxCell>
        <mxCell id="LB_BIZ6fuCPDCH63aikm-46" style="edgeStyle=orthogonalEdgeStyle;rounded=0;orthogonalLoop=1;jettySize=auto;html=1;exitX=1;exitY=0.5;exitDx=0;exitDy=0;entryX=0;entryY=0.25;entryDx=0;entryDy=0;" parent="1" source="i0lhiT4KbpCjelZSpUZJ-34" target="i0lhiT4KbpCjelZSpUZJ-53" edge="1">
          <mxGeometry relative="1" as="geometry" />
        </mxCell>
        <mxCell id="i0lhiT4KbpCjelZSpUZJ-34" value="Control Instructions" style="ellipse;whiteSpace=wrap;html=1;" parent="1" vertex="1">
          <mxGeometry x="1890" y="720" width="120" height="60" as="geometry" />
        </mxCell>
        <mxCell id="i0lhiT4KbpCjelZSpUZJ-35" value="Base Plates" style="ellipse;whiteSpace=wrap;html=1;" parent="1" vertex="1">
          <mxGeometry x="2290" y="570" width="120" height="60" as="geometry" />
        </mxCell>
        <mxCell id="LB_BIZ6fuCPDCH63aikm-47" style="edgeStyle=orthogonalEdgeStyle;rounded=0;orthogonalLoop=1;jettySize=auto;html=1;exitX=1;exitY=0.5;exitDx=0;exitDy=0;entryX=0;entryY=0.75;entryDx=0;entryDy=0;" parent="1" source="i0lhiT4KbpCjelZSpUZJ-37" target="i0lhiT4KbpCjelZSpUZJ-53" edge="1">
          <mxGeometry relative="1" as="geometry" />
        </mxCell>
        <mxCell id="i0lhiT4KbpCjelZSpUZJ-37" value="Safety Signals" style="ellipse;whiteSpace=wrap;html=1;" parent="1" vertex="1">
          <mxGeometry x="1890" y="800" width="120" height="60" as="geometry" />
        </mxCell>
        <mxCell id="i0lhiT4KbpCjelZSpUZJ-38" value="Status signals for controller" style="ellipse;whiteSpace=wrap;html=1;" parent="1" vertex="1">
          <mxGeometry x="2290" y="790" width="120" height="60" as="geometry" />
        </mxCell>
        <mxCell id="i0lhiT4KbpCjelZSpUZJ-39" value="Blocks" style="ellipse;whiteSpace=wrap;html=1;" parent="1" vertex="1">
          <mxGeometry x="2290" y="680" width="120" height="60" as="geometry" />
        </mxCell>
        <mxCell id="i0lhiT4KbpCjelZSpUZJ-89" style="edgeStyle=orthogonalEdgeStyle;rounded=0;orthogonalLoop=1;jettySize=auto;html=1;exitX=1;exitY=0.5;exitDx=0;exitDy=0;entryX=0;entryY=0.75;entryDx=0;entryDy=0;" parent="1" source="i0lhiT4KbpCjelZSpUZJ-41" target="i0lhiT4KbpCjelZSpUZJ-81" edge="1">
          <mxGeometry relative="1" as="geometry" />
        </mxCell>
        <mxCell id="i0lhiT4KbpCjelZSpUZJ-41" value="Assembled Products" style="ellipse;whiteSpace=wrap;html=1;" parent="1" vertex="1">
          <mxGeometry x="1890" y="640" width="120" height="60" as="geometry" />
        </mxCell>
        <mxCell id="i0lhiT4KbpCjelZSpUZJ-84" style="edgeStyle=orthogonalEdgeStyle;rounded=0;orthogonalLoop=1;jettySize=auto;html=1;exitX=0.25;exitY=0;exitDx=0;exitDy=0;entryX=0.25;entryY=1;entryDx=0;entryDy=0;" parent="1" source="i0lhiT4KbpCjelZSpUZJ-53" target="i0lhiT4KbpCjelZSpUZJ-81" edge="1">
          <mxGeometry relative="1" as="geometry" />
        </mxCell>
        <mxCell id="DmpDktqdWVQR6J1gC0hd-18" style="edgeStyle=orthogonalEdgeStyle;rounded=0;orthogonalLoop=1;jettySize=auto;html=1;exitX=1;exitY=0.5;exitDx=0;exitDy=0;entryX=0;entryY=0.5;entryDx=0;entryDy=0;" parent="1" source="i0lhiT4KbpCjelZSpUZJ-53" target="i0lhiT4KbpCjelZSpUZJ-38" edge="1">
          <mxGeometry relative="1" as="geometry" />
        </mxCell>
        <mxCell id="i0lhiT4KbpCjelZSpUZJ-53" value="Communication with overlaying controller" style="rounded=0;whiteSpace=wrap;html=1;" parent="1" vertex="1">
          <mxGeometry x="2090" y="760" width="120" height="60" as="geometry" />
        </mxCell>
        <mxCell id="i0lhiT4KbpCjelZSpUZJ-85" style="edgeStyle=orthogonalEdgeStyle;rounded=0;orthogonalLoop=1;jettySize=auto;html=1;exitX=0.75;exitY=1;exitDx=0;exitDy=0;entryX=0.75;entryY=0;entryDx=0;entryDy=0;" parent="1" source="i0lhiT4KbpCjelZSpUZJ-81" target="i0lhiT4KbpCjelZSpUZJ-53" edge="1">
          <mxGeometry relative="1" as="geometry">
            <mxPoint x="2290.0000000000005" y="840" as="targetPoint" />
          </mxGeometry>
        </mxCell>
        <mxCell id="i0lhiT4KbpCjelZSpUZJ-90" style="edgeStyle=orthogonalEdgeStyle;rounded=0;orthogonalLoop=1;jettySize=auto;html=1;exitX=1;exitY=0.25;exitDx=0;exitDy=0;entryX=0;entryY=0.5;entryDx=0;entryDy=0;" parent="1" source="i0lhiT4KbpCjelZSpUZJ-81" target="i0lhiT4KbpCjelZSpUZJ-35" edge="1">
          <mxGeometry relative="1" as="geometry" />
        </mxCell>
        <mxCell id="i0lhiT4KbpCjelZSpUZJ-91" style="edgeStyle=orthogonalEdgeStyle;rounded=0;orthogonalLoop=1;jettySize=auto;html=1;exitX=1;exitY=0.75;exitDx=0;exitDy=0;entryX=0;entryY=0.5;entryDx=0;entryDy=0;" parent="1" source="i0lhiT4KbpCjelZSpUZJ-81" target="i0lhiT4KbpCjelZSpUZJ-39" edge="1">
          <mxGeometry relative="1" as="geometry" />
        </mxCell>
        <mxCell id="i0lhiT4KbpCjelZSpUZJ-81" value="Controlling the robot movements" style="rounded=0;whiteSpace=wrap;html=1;" parent="1" vertex="1">
          <mxGeometry x="2090" y="605" width="120" height="60" as="geometry" />
        </mxCell>
        <mxCell id="3p3TKVC5PLOxh6lPXKaE-7" style="edgeStyle=orthogonalEdgeStyle;rounded=0;orthogonalLoop=1;jettySize=auto;html=1;exitX=1;exitY=0.5;exitDx=0;exitDy=0;entryX=0;entryY=0.5;entryDx=0;entryDy=0;" parent="1" source="hy0CgDzjff426BO4qD0z-1" target="hy0CgDzjff426BO4qD0z-11" edge="1">
          <mxGeometry relative="1" as="geometry">
            <Array as="points">
              <mxPoint x="690" y="1180" />
              <mxPoint x="690" y="1153" />
            </Array>
          </mxGeometry>
        </mxCell>
        <mxCell id="3p3TKVC5PLOxh6lPXKaE-8" style="edgeStyle=orthogonalEdgeStyle;rounded=0;orthogonalLoop=1;jettySize=auto;html=1;exitX=1;exitY=0.5;exitDx=0;exitDy=0;entryX=0;entryY=0.5;entryDx=0;entryDy=0;" parent="1" source="hy0CgDzjff426BO4qD0z-1" target="hy0CgDzjff426BO4qD0z-13" edge="1">
          <mxGeometry relative="1" as="geometry">
            <Array as="points">
              <mxPoint x="690" y="1180" />
              <mxPoint x="690" y="1213" />
            </Array>
          </mxGeometry>
        </mxCell>
        <mxCell id="3p3TKVC5PLOxh6lPXKaE-85" style="edgeStyle=orthogonalEdgeStyle;rounded=0;orthogonalLoop=1;jettySize=auto;html=1;exitX=1;exitY=0.5;exitDx=0;exitDy=0;entryX=0;entryY=0.5;entryDx=0;entryDy=0;" parent="1" source="hy0CgDzjff426BO4qD0z-1" target="3p3TKVC5PLOxh6lPXKaE-84" edge="1">
          <mxGeometry relative="1" as="geometry">
            <Array as="points">
              <mxPoint x="690" y="1180" />
              <mxPoint x="690" y="1273" />
            </Array>
          </mxGeometry>
        </mxCell>
        <mxCell id="5A24W4kJKt_u-pnmxVpB-13" style="edgeStyle=orthogonalEdgeStyle;rounded=0;orthogonalLoop=1;jettySize=auto;html=1;exitX=1;exitY=0.5;exitDx=0;exitDy=0;entryX=0;entryY=0.5;entryDx=0;entryDy=0;" parent="1" source="hy0CgDzjff426BO4qD0z-1" target="5A24W4kJKt_u-pnmxVpB-12" edge="1">
          <mxGeometry relative="1" as="geometry">
            <Array as="points">
              <mxPoint x="690" y="1180" />
              <mxPoint x="690" y="1094" />
            </Array>
          </mxGeometry>
        </mxCell>
        <mxCell id="hy0CgDzjff426BO4qD0z-1" value="Grab the base plate carrier" style="rounded=0;whiteSpace=wrap;html=1;" parent="1" vertex="1">
          <mxGeometry x="540" y="1155" width="140" height="50" as="geometry" />
        </mxCell>
        <mxCell id="3p3TKVC5PLOxh6lPXKaE-16" style="edgeStyle=orthogonalEdgeStyle;rounded=0;orthogonalLoop=1;jettySize=auto;html=1;exitX=0.5;exitY=1;exitDx=0;exitDy=0;entryX=0.5;entryY=0;entryDx=0;entryDy=0;" parent="1" source="hy0CgDzjff426BO4qD0z-3" target="hy0CgDzjff426BO4qD0z-18" edge="1">
          <mxGeometry relative="1" as="geometry">
            <Array as="points">
              <mxPoint x="460" y="1320" />
              <mxPoint x="330" y="1320" />
            </Array>
          </mxGeometry>
        </mxCell>
        <mxCell id="3p3TKVC5PLOxh6lPXKaE-17" style="edgeStyle=orthogonalEdgeStyle;rounded=0;orthogonalLoop=1;jettySize=auto;html=1;exitX=0.5;exitY=1;exitDx=0;exitDy=0;entryX=0.5;entryY=0;entryDx=0;entryDy=0;" parent="1" source="hy0CgDzjff426BO4qD0z-3" target="hy0CgDzjff426BO4qD0z-21" edge="1">
          <mxGeometry relative="1" as="geometry" />
        </mxCell>
        <mxCell id="3p3TKVC5PLOxh6lPXKaE-18" style="edgeStyle=orthogonalEdgeStyle;rounded=0;orthogonalLoop=1;jettySize=auto;html=1;exitX=0.5;exitY=1;exitDx=0;exitDy=0;entryX=0.5;entryY=0;entryDx=0;entryDy=0;" parent="1" source="hy0CgDzjff426BO4qD0z-3" target="3p3TKVC5PLOxh6lPXKaE-2" edge="1">
          <mxGeometry relative="1" as="geometry">
            <Array as="points">
              <mxPoint x="460" y="1320" />
              <mxPoint x="590" y="1320" />
            </Array>
          </mxGeometry>
        </mxCell>
        <mxCell id="hy0CgDzjff426BO4qD0z-3" value="Place base plate carrier inside the manufacturing line" style="rounded=0;whiteSpace=wrap;html=1;" parent="1" vertex="1">
          <mxGeometry x="390" y="1260" width="140" height="50" as="geometry" />
        </mxCell>
        <mxCell id="3p3TKVC5PLOxh6lPXKaE-12" style="edgeStyle=orthogonalEdgeStyle;rounded=0;orthogonalLoop=1;jettySize=auto;html=1;exitX=0;exitY=0.5;exitDx=0;exitDy=0;entryX=1;entryY=0.5;entryDx=0;entryDy=0;" parent="1" source="hy0CgDzjff426BO4qD0z-5" target="hy0CgDzjff426BO4qD0z-7" edge="1">
          <mxGeometry relative="1" as="geometry">
            <Array as="points">
              <mxPoint x="230" y="1180" />
              <mxPoint x="230" y="1120" />
            </Array>
          </mxGeometry>
        </mxCell>
        <mxCell id="3p3TKVC5PLOxh6lPXKaE-14" style="edgeStyle=orthogonalEdgeStyle;rounded=0;orthogonalLoop=1;jettySize=auto;html=1;exitX=0;exitY=0.5;exitDx=0;exitDy=0;entryX=1;entryY=0.5;entryDx=0;entryDy=0;" parent="1" source="hy0CgDzjff426BO4qD0z-5" target="hy0CgDzjff426BO4qD0z-8" edge="1">
          <mxGeometry relative="1" as="geometry" />
        </mxCell>
        <mxCell id="3p3TKVC5PLOxh6lPXKaE-15" style="edgeStyle=orthogonalEdgeStyle;rounded=0;orthogonalLoop=1;jettySize=auto;html=1;exitX=0;exitY=0.5;exitDx=0;exitDy=0;entryX=1;entryY=0.5;entryDx=0;entryDy=0;" parent="1" source="hy0CgDzjff426BO4qD0z-5" target="hy0CgDzjff426BO4qD0z-9" edge="1">
          <mxGeometry relative="1" as="geometry">
            <Array as="points">
              <mxPoint x="230" y="1180" />
              <mxPoint x="230" y="1240" />
            </Array>
          </mxGeometry>
        </mxCell>
        <mxCell id="hy0CgDzjff426BO4qD0z-5" value="Locate the loaded base plate carrier" style="rounded=0;whiteSpace=wrap;html=1;" parent="1" vertex="1">
          <mxGeometry x="240" y="1155" width="140" height="50" as="geometry" />
        </mxCell>
        <mxCell id="3p3TKVC5PLOxh6lPXKaE-3" style="edgeStyle=orthogonalEdgeStyle;rounded=0;orthogonalLoop=1;jettySize=auto;html=1;exitX=0;exitY=0.5;exitDx=0;exitDy=0;entryX=1;entryY=0.5;entryDx=0;entryDy=0;" parent="1" source="hy0CgDzjff426BO4qD0z-6" target="hy0CgDzjff426BO4qD0z-5" edge="1">
          <mxGeometry relative="1" as="geometry" />
        </mxCell>
        <mxCell id="3p3TKVC5PLOxh6lPXKaE-4" style="edgeStyle=orthogonalEdgeStyle;rounded=0;orthogonalLoop=1;jettySize=auto;html=1;exitX=0.5;exitY=1;exitDx=0;exitDy=0;entryX=0.5;entryY=0;entryDx=0;entryDy=0;" parent="1" source="hy0CgDzjff426BO4qD0z-6" target="hy0CgDzjff426BO4qD0z-3" edge="1">
          <mxGeometry relative="1" as="geometry" />
        </mxCell>
        <mxCell id="3p3TKVC5PLOxh6lPXKaE-5" style="edgeStyle=orthogonalEdgeStyle;rounded=0;orthogonalLoop=1;jettySize=auto;html=1;exitX=1;exitY=0.5;exitDx=0;exitDy=0;entryX=0;entryY=0.5;entryDx=0;entryDy=0;" parent="1" source="hy0CgDzjff426BO4qD0z-6" target="hy0CgDzjff426BO4qD0z-1" edge="1">
          <mxGeometry relative="1" as="geometry" />
        </mxCell>
        <mxCell id="hy0CgDzjff426BO4qD0z-6" value="Feeding the manufacturing line" style="ellipse;whiteSpace=wrap;html=1;aspect=fixed;" parent="1" vertex="1">
          <mxGeometry x="400" y="1120" width="120" height="120" as="geometry" />
        </mxCell>
        <mxCell id="hy0CgDzjff426BO4qD0z-7" value="Camera" style="ellipse;whiteSpace=wrap;html=1;" parent="1" vertex="1">
          <mxGeometry x="90" y="1097.5" width="120" height="45" as="geometry" />
        </mxCell>
        <mxCell id="hy0CgDzjff426BO4qD0z-8" value="Overlaying&lt;br&gt;Controller" style="ellipse;whiteSpace=wrap;html=1;fillColor=#FFFF00;" parent="1" vertex="1">
          <mxGeometry x="90" y="1157.5" width="120" height="45" as="geometry" />
        </mxCell>
        <mxCell id="hy0CgDzjff426BO4qD0z-9" value="Magazin" style="ellipse;whiteSpace=wrap;html=1;" parent="1" vertex="1">
          <mxGeometry x="90" y="1217.5" width="120" height="45" as="geometry" />
        </mxCell>
        <mxCell id="hy0CgDzjff426BO4qD0z-11" value="Vacuum gripper" style="ellipse;whiteSpace=wrap;html=1;" parent="1" vertex="1">
          <mxGeometry x="710" y="1130" width="120" height="45" as="geometry" />
        </mxCell>
        <mxCell id="3p3TKVC5PLOxh6lPXKaE-9" style="edgeStyle=orthogonalEdgeStyle;rounded=0;orthogonalLoop=1;jettySize=auto;html=1;exitX=1;exitY=0.5;exitDx=0;exitDy=0;entryX=0;entryY=0.5;entryDx=0;entryDy=0;" parent="1" source="hy0CgDzjff426BO4qD0z-13" target="hy0CgDzjff426BO4qD0z-20" edge="1">
          <mxGeometry relative="1" as="geometry">
            <Array as="points">
              <mxPoint x="830" y="1175" />
            </Array>
          </mxGeometry>
        </mxCell>
        <mxCell id="3p3TKVC5PLOxh6lPXKaE-10" style="edgeStyle=orthogonalEdgeStyle;rounded=0;orthogonalLoop=1;jettySize=auto;html=1;exitX=1;exitY=0.5;exitDx=0;exitDy=0;entryX=0;entryY=0.5;entryDx=0;entryDy=0;" parent="1" source="hy0CgDzjff426BO4qD0z-13" target="hy0CgDzjff426BO4qD0z-19" edge="1">
          <mxGeometry relative="1" as="geometry">
            <Array as="points">
              <mxPoint x="830" y="1248" />
            </Array>
          </mxGeometry>
        </mxCell>
        <mxCell id="hy0CgDzjff426BO4qD0z-13" value="Grab from the sides" style="ellipse;whiteSpace=wrap;html=1;" parent="1" vertex="1">
          <mxGeometry x="710" y="1190" width="120" height="45" as="geometry" />
        </mxCell>
        <mxCell id="hy0CgDzjff426BO4qD0z-18" value="Overlaying &lt;br&gt;Controller" style="ellipse;whiteSpace=wrap;html=1;fillColor=#FFFF00;" parent="1" vertex="1">
          <mxGeometry x="270" y="1340" width="120" height="45" as="geometry" />
        </mxCell>
        <mxCell id="hy0CgDzjff426BO4qD0z-19" value="&lt;span style=&quot;font-weight: 400;&quot;&gt;Transverse&lt;/span&gt;" style="ellipse;whiteSpace=wrap;html=1;fontStyle=1" parent="1" vertex="1">
          <mxGeometry x="850" y="1225" width="120" height="45" as="geometry" />
        </mxCell>
        <mxCell id="hy0CgDzjff426BO4qD0z-20" value="Longitudinal" style="ellipse;whiteSpace=wrap;html=1;" parent="1" vertex="1">
          <mxGeometry x="850" y="1152.5" width="120" height="45" as="geometry" />
        </mxCell>
        <mxCell id="hy0CgDzjff426BO4qD0z-21" value="Camera" style="ellipse;whiteSpace=wrap;html=1;" parent="1" vertex="1">
          <mxGeometry x="400" y="1340" width="120" height="45" as="geometry" />
        </mxCell>
        <mxCell id="3p3TKVC5PLOxh6lPXKaE-1" style="edgeStyle=orthogonalEdgeStyle;rounded=0;orthogonalLoop=1;jettySize=auto;html=1;exitX=0.5;exitY=1;exitDx=0;exitDy=0;" parent="1" source="hy0CgDzjff426BO4qD0z-13" target="hy0CgDzjff426BO4qD0z-13" edge="1">
          <mxGeometry relative="1" as="geometry" />
        </mxCell>
        <mxCell id="3p3TKVC5PLOxh6lPXKaE-2" value="Force search" style="ellipse;whiteSpace=wrap;html=1;fillColor=#FFFF00;" parent="1" vertex="1">
          <mxGeometry x="530" y="1340" width="120" height="45" as="geometry" />
        </mxCell>
        <mxCell id="3p3TKVC5PLOxh6lPXKaE-55" style="edgeStyle=orthogonalEdgeStyle;rounded=0;orthogonalLoop=1;jettySize=auto;html=1;exitX=0.5;exitY=1;exitDx=0;exitDy=0;entryX=0.5;entryY=0;entryDx=0;entryDy=0;" parent="1" source="3p3TKVC5PLOxh6lPXKaE-33" target="3p3TKVC5PLOxh6lPXKaE-47" edge="1">
          <mxGeometry relative="1" as="geometry" />
        </mxCell>
        <mxCell id="3p3TKVC5PLOxh6lPXKaE-70" style="edgeStyle=orthogonalEdgeStyle;rounded=0;orthogonalLoop=1;jettySize=auto;html=1;exitX=0;exitY=0.5;exitDx=0;exitDy=0;entryX=1;entryY=0.5;entryDx=0;entryDy=0;" parent="1" source="3p3TKVC5PLOxh6lPXKaE-33" target="3p3TKVC5PLOxh6lPXKaE-48" edge="1">
          <mxGeometry relative="1" as="geometry" />
        </mxCell>
        <mxCell id="3p3TKVC5PLOxh6lPXKaE-72" style="edgeStyle=orthogonalEdgeStyle;rounded=0;orthogonalLoop=1;jettySize=auto;html=1;exitX=1;exitY=0.5;exitDx=0;exitDy=0;entryX=0;entryY=0.5;entryDx=0;entryDy=0;" parent="1" source="3p3TKVC5PLOxh6lPXKaE-33" target="3p3TKVC5PLOxh6lPXKaE-68" edge="1">
          <mxGeometry relative="1" as="geometry" />
        </mxCell>
        <mxCell id="3p3TKVC5PLOxh6lPXKaE-33" value="Dissassembling final products and organizing components" style="ellipse;whiteSpace=wrap;html=1;aspect=fixed;" parent="1" vertex="1">
          <mxGeometry x="1480" y="1120" width="120" height="120" as="geometry" />
        </mxCell>
        <mxCell id="3p3TKVC5PLOxh6lPXKaE-41" value="Force detection to place the parts" style="ellipse;whiteSpace=wrap;html=1;fillColor=#FFFF00;" parent="1" vertex="1">
          <mxGeometry x="1350" y="1340" width="120" height="45" as="geometry" />
        </mxCell>
        <mxCell id="3p3TKVC5PLOxh6lPXKaE-44" value="Camera" style="ellipse;whiteSpace=wrap;html=1;" parent="1" vertex="1">
          <mxGeometry x="1480" y="1340" width="120" height="45" as="geometry" />
        </mxCell>
        <mxCell id="3p3TKVC5PLOxh6lPXKaE-46" value="Magazine" style="ellipse;whiteSpace=wrap;html=1;" parent="1" vertex="1">
          <mxGeometry x="1610" y="1340" width="120" height="45" as="geometry" />
        </mxCell>
        <mxCell id="3p3TKVC5PLOxh6lPXKaE-94" style="edgeStyle=orthogonalEdgeStyle;rounded=0;orthogonalLoop=1;jettySize=auto;html=1;exitX=0.5;exitY=1;exitDx=0;exitDy=0;entryX=0.5;entryY=0;entryDx=0;entryDy=0;" parent="1" source="3p3TKVC5PLOxh6lPXKaE-47" target="3p3TKVC5PLOxh6lPXKaE-41" edge="1">
          <mxGeometry relative="1" as="geometry">
            <Array as="points">
              <mxPoint x="1540" y="1320" />
              <mxPoint x="1410" y="1320" />
            </Array>
          </mxGeometry>
        </mxCell>
        <mxCell id="3p3TKVC5PLOxh6lPXKaE-95" style="edgeStyle=orthogonalEdgeStyle;rounded=0;orthogonalLoop=1;jettySize=auto;html=1;exitX=0.5;exitY=1;exitDx=0;exitDy=0;entryX=0.5;entryY=0;entryDx=0;entryDy=0;" parent="1" source="3p3TKVC5PLOxh6lPXKaE-47" target="3p3TKVC5PLOxh6lPXKaE-44" edge="1">
          <mxGeometry relative="1" as="geometry" />
        </mxCell>
        <mxCell id="3p3TKVC5PLOxh6lPXKaE-96" style="edgeStyle=orthogonalEdgeStyle;rounded=0;orthogonalLoop=1;jettySize=auto;html=1;exitX=0.5;exitY=1;exitDx=0;exitDy=0;entryX=0.5;entryY=0;entryDx=0;entryDy=0;" parent="1" source="3p3TKVC5PLOxh6lPXKaE-47" target="3p3TKVC5PLOxh6lPXKaE-46" edge="1">
          <mxGeometry relative="1" as="geometry">
            <Array as="points">
              <mxPoint x="1540" y="1320" />
              <mxPoint x="1670" y="1320" />
            </Array>
          </mxGeometry>
        </mxCell>
        <mxCell id="3p3TKVC5PLOxh6lPXKaE-47" value="Organize individual components" style="rounded=0;whiteSpace=wrap;html=1;" parent="1" vertex="1">
          <mxGeometry x="1470" y="1260" width="140" height="50" as="geometry" />
        </mxCell>
        <mxCell id="5A24W4kJKt_u-pnmxVpB-8" style="edgeStyle=orthogonalEdgeStyle;rounded=0;orthogonalLoop=1;jettySize=auto;html=1;exitX=0;exitY=0.5;exitDx=0;exitDy=0;entryX=1;entryY=0.5;entryDx=0;entryDy=0;" parent="1" source="3p3TKVC5PLOxh6lPXKaE-48" target="3p3TKVC5PLOxh6lPXKaE-78" edge="1">
          <mxGeometry relative="1" as="geometry">
            <Array as="points">
              <mxPoint x="1310" y="1180" />
              <mxPoint x="1310" y="1099" />
            </Array>
          </mxGeometry>
        </mxCell>
        <mxCell id="5A24W4kJKt_u-pnmxVpB-9" style="edgeStyle=orthogonalEdgeStyle;rounded=0;orthogonalLoop=1;jettySize=auto;html=1;exitX=0;exitY=0.5;exitDx=0;exitDy=0;entryX=1;entryY=0.5;entryDx=0;entryDy=0;" parent="1" source="3p3TKVC5PLOxh6lPXKaE-48" target="5A24W4kJKt_u-pnmxVpB-2" edge="1">
          <mxGeometry relative="1" as="geometry">
            <Array as="points">
              <mxPoint x="1310" y="1180" />
              <mxPoint x="1310" y="1282" />
            </Array>
          </mxGeometry>
        </mxCell>
        <mxCell id="5A24W4kJKt_u-pnmxVpB-10" style="edgeStyle=orthogonalEdgeStyle;rounded=0;orthogonalLoop=1;jettySize=auto;html=1;exitX=0;exitY=0.5;exitDx=0;exitDy=0;entryX=1;entryY=0.5;entryDx=0;entryDy=0;" parent="1" source="3p3TKVC5PLOxh6lPXKaE-48" target="3p3TKVC5PLOxh6lPXKaE-77" edge="1">
          <mxGeometry relative="1" as="geometry">
            <Array as="points">
              <mxPoint x="1310" y="1180" />
              <mxPoint x="1310" y="1159" />
            </Array>
          </mxGeometry>
        </mxCell>
        <mxCell id="5A24W4kJKt_u-pnmxVpB-11" style="edgeStyle=orthogonalEdgeStyle;rounded=0;orthogonalLoop=1;jettySize=auto;html=1;exitX=0;exitY=0.5;exitDx=0;exitDy=0;entryX=1;entryY=0.5;entryDx=0;entryDy=0;" parent="1" source="3p3TKVC5PLOxh6lPXKaE-48" target="3p3TKVC5PLOxh6lPXKaE-88" edge="1">
          <mxGeometry relative="1" as="geometry">
            <Array as="points">
              <mxPoint x="1310" y="1180" />
              <mxPoint x="1310" y="1217" />
            </Array>
          </mxGeometry>
        </mxCell>
        <mxCell id="3p3TKVC5PLOxh6lPXKaE-48" value="Disassemble into individual components" style="rounded=0;whiteSpace=wrap;html=1;" parent="1" vertex="1">
          <mxGeometry x="1320" y="1155" width="140" height="50" as="geometry" />
        </mxCell>
        <mxCell id="3p3TKVC5PLOxh6lPXKaE-61" value="Camera" style="ellipse;whiteSpace=wrap;html=1;" parent="1" vertex="1">
          <mxGeometry x="1790" y="1060" width="120" height="45" as="geometry" />
        </mxCell>
        <mxCell id="3p3TKVC5PLOxh6lPXKaE-62" value="Overlaying Controller" style="ellipse;whiteSpace=wrap;html=1;fillColor=#FFFF00;" parent="1" vertex="1">
          <mxGeometry x="1790" y="1121.25" width="120" height="45" as="geometry" />
        </mxCell>
        <mxCell id="3p3TKVC5PLOxh6lPXKaE-63" value="QR Code" style="ellipse;whiteSpace=wrap;html=1;" parent="1" vertex="1">
          <mxGeometry x="1790" y="1180" width="120" height="45" as="geometry" />
        </mxCell>
        <mxCell id="3p3TKVC5PLOxh6lPXKaE-73" style="edgeStyle=orthogonalEdgeStyle;rounded=0;orthogonalLoop=1;jettySize=auto;html=1;exitX=1;exitY=0.5;exitDx=0;exitDy=0;entryX=0;entryY=0.5;entryDx=0;entryDy=0;" parent="1" source="3p3TKVC5PLOxh6lPXKaE-68" target="3p3TKVC5PLOxh6lPXKaE-61" edge="1">
          <mxGeometry relative="1" as="geometry">
            <Array as="points">
              <mxPoint x="1770" y="1180" />
              <mxPoint x="1770" y="1083" />
            </Array>
          </mxGeometry>
        </mxCell>
        <mxCell id="3p3TKVC5PLOxh6lPXKaE-74" style="edgeStyle=orthogonalEdgeStyle;rounded=0;orthogonalLoop=1;jettySize=auto;html=1;exitX=1;exitY=0.5;exitDx=0;exitDy=0;entryX=0;entryY=0.5;entryDx=0;entryDy=0;" parent="1" source="3p3TKVC5PLOxh6lPXKaE-68" target="3p3TKVC5PLOxh6lPXKaE-62" edge="1">
          <mxGeometry relative="1" as="geometry">
            <Array as="points">
              <mxPoint x="1770" y="1180" />
              <mxPoint x="1770" y="1144" />
            </Array>
          </mxGeometry>
        </mxCell>
        <mxCell id="3p3TKVC5PLOxh6lPXKaE-75" style="edgeStyle=orthogonalEdgeStyle;rounded=0;orthogonalLoop=1;jettySize=auto;html=1;exitX=1;exitY=0.5;exitDx=0;exitDy=0;entryX=0;entryY=0.5;entryDx=0;entryDy=0;" parent="1" source="3p3TKVC5PLOxh6lPXKaE-68" target="3p3TKVC5PLOxh6lPXKaE-63" edge="1">
          <mxGeometry relative="1" as="geometry">
            <Array as="points">
              <mxPoint x="1770" y="1180" />
              <mxPoint x="1770" y="1203" />
            </Array>
          </mxGeometry>
        </mxCell>
        <mxCell id="3p3TKVC5PLOxh6lPXKaE-76" style="edgeStyle=orthogonalEdgeStyle;rounded=0;orthogonalLoop=1;jettySize=auto;html=1;exitX=1;exitY=0.5;exitDx=0;exitDy=0;entryX=0;entryY=0.5;entryDx=0;entryDy=0;" parent="1" source="3p3TKVC5PLOxh6lPXKaE-68" target="3p3TKVC5PLOxh6lPXKaE-69" edge="1">
          <mxGeometry relative="1" as="geometry">
            <Array as="points">
              <mxPoint x="1770" y="1180" />
              <mxPoint x="1770" y="1263" />
            </Array>
          </mxGeometry>
        </mxCell>
        <mxCell id="3p3TKVC5PLOxh6lPXKaE-68" value="Get information about the different parts" style="rounded=0;whiteSpace=wrap;html=1;" parent="1" vertex="1">
          <mxGeometry x="1620" y="1155" width="140" height="50" as="geometry" />
        </mxCell>
        <mxCell id="3p3TKVC5PLOxh6lPXKaE-69" value="Profile detection" style="ellipse;whiteSpace=wrap;html=1;" parent="1" vertex="1">
          <mxGeometry x="1790" y="1240" width="120" height="45" as="geometry" />
        </mxCell>
        <mxCell id="3p3TKVC5PLOxh6lPXKaE-92" style="edgeStyle=orthogonalEdgeStyle;rounded=0;orthogonalLoop=1;jettySize=auto;html=1;exitX=0;exitY=0.5;exitDx=0;exitDy=0;entryX=1;entryY=0.5;entryDx=0;entryDy=0;" parent="1" source="3p3TKVC5PLOxh6lPXKaE-77" target="3p3TKVC5PLOxh6lPXKaE-80" edge="1">
          <mxGeometry relative="1" as="geometry">
            <Array as="points">
              <mxPoint x="1170" y="1123.37" />
            </Array>
          </mxGeometry>
        </mxCell>
        <mxCell id="3p3TKVC5PLOxh6lPXKaE-93" style="edgeStyle=orthogonalEdgeStyle;rounded=0;orthogonalLoop=1;jettySize=auto;html=1;exitX=0;exitY=0.5;exitDx=0;exitDy=0;entryX=1;entryY=0.5;entryDx=0;entryDy=0;" parent="1" source="3p3TKVC5PLOxh6lPXKaE-77" target="3p3TKVC5PLOxh6lPXKaE-81" edge="1">
          <mxGeometry relative="1" as="geometry">
            <Array as="points">
              <mxPoint x="1170" y="1194.37" />
            </Array>
          </mxGeometry>
        </mxCell>
        <mxCell id="3p3TKVC5PLOxh6lPXKaE-77" value="Kipping motion" style="ellipse;whiteSpace=wrap;html=1;fillColor=#FFFF00;" parent="1" vertex="1">
          <mxGeometry x="1170" y="1136.87" width="120" height="45" as="geometry" />
        </mxCell>
        <mxCell id="3p3TKVC5PLOxh6lPXKaE-78" value="Base plate securing fixture" style="ellipse;whiteSpace=wrap;html=1;" parent="1" vertex="1">
          <mxGeometry x="1170" y="1076.87" width="120" height="45" as="geometry" />
        </mxCell>
        <mxCell id="3p3TKVC5PLOxh6lPXKaE-80" value="Longitudinal" style="ellipse;whiteSpace=wrap;html=1;" parent="1" vertex="1">
          <mxGeometry x="1030" y="1100.62" width="120" height="45" as="geometry" />
        </mxCell>
        <mxCell id="3p3TKVC5PLOxh6lPXKaE-81" value="Transverse" style="ellipse;whiteSpace=wrap;html=1;fillColor=#FFFF00;" parent="1" vertex="1">
          <mxGeometry x="1030" y="1171.87" width="120" height="45" as="geometry" />
        </mxCell>
        <mxCell id="3p3TKVC5PLOxh6lPXKaE-82" value="Can be a pivot with force mode&lt;br&gt;Not necessary" style="text;html=1;strokeColor=#FF1E05;fillColor=none;align=center;verticalAlign=middle;whiteSpace=wrap;rounded=0;" parent="1" vertex="1">
          <mxGeometry x="1050" y="1014.37" width="80" height="70" as="geometry" />
        </mxCell>
        <mxCell id="3p3TKVC5PLOxh6lPXKaE-83" value="To locate where the carrier pins go in" style="text;html=1;strokeColor=#FF1E05;fillColor=none;align=center;verticalAlign=middle;whiteSpace=wrap;rounded=0;" parent="1" vertex="1">
          <mxGeometry x="550" y="1400" width="80" height="60" as="geometry" />
        </mxCell>
        <mxCell id="3p3TKVC5PLOxh6lPXKaE-84" value="Custom Grippers" style="ellipse;whiteSpace=wrap;html=1;fillColor=#FFFF00;" parent="1" vertex="1">
          <mxGeometry x="710" y="1250" width="120" height="45" as="geometry" />
        </mxCell>
        <mxCell id="3p3TKVC5PLOxh6lPXKaE-87" value="plotting the movement of the robot with force mode enabled" style="text;html=1;strokeColor=#FF1E05;fillColor=none;align=center;verticalAlign=middle;whiteSpace=wrap;rounded=0;" parent="1" vertex="1">
          <mxGeometry x="1930" y="1233.75" width="80" height="70" as="geometry" />
        </mxCell>
        <mxCell id="3p3TKVC5PLOxh6lPXKaE-88" value="Pick Up" style="ellipse;whiteSpace=wrap;html=1;" parent="1" vertex="1">
          <mxGeometry x="1170" y="1194.37" width="120" height="45" as="geometry" />
        </mxCell>
        <mxCell id="Y-UZMQaGsz35Z4EGQbIQ-41" style="edgeStyle=orthogonalEdgeStyle;rounded=0;orthogonalLoop=1;jettySize=auto;html=1;exitX=0.5;exitY=1;exitDx=0;exitDy=0;entryX=0.5;entryY=0;entryDx=0;entryDy=0;" parent="1" source="Y-UZMQaGsz35Z4EGQbIQ-4" target="Y-UZMQaGsz35Z4EGQbIQ-33" edge="1">
          <mxGeometry relative="1" as="geometry" />
        </mxCell>
        <mxCell id="Y-UZMQaGsz35Z4EGQbIQ-43" style="edgeStyle=orthogonalEdgeStyle;rounded=0;orthogonalLoop=1;jettySize=auto;html=1;exitX=0.5;exitY=0;exitDx=0;exitDy=0;entryX=0.5;entryY=1;entryDx=0;entryDy=0;" parent="1" source="Y-UZMQaGsz35Z4EGQbIQ-4" target="Y-UZMQaGsz35Z4EGQbIQ-16" edge="1">
          <mxGeometry relative="1" as="geometry" />
        </mxCell>
        <mxCell id="Y-UZMQaGsz35Z4EGQbIQ-46" style="edgeStyle=orthogonalEdgeStyle;rounded=0;orthogonalLoop=1;jettySize=auto;html=1;exitX=0;exitY=0;exitDx=0;exitDy=0;entryX=1;entryY=0.5;entryDx=0;entryDy=0;" parent="1" source="Y-UZMQaGsz35Z4EGQbIQ-4" target="Y-UZMQaGsz35Z4EGQbIQ-34" edge="1">
          <mxGeometry relative="1" as="geometry" />
        </mxCell>
        <mxCell id="Y-UZMQaGsz35Z4EGQbIQ-47" style="edgeStyle=orthogonalEdgeStyle;rounded=0;orthogonalLoop=1;jettySize=auto;html=1;exitX=1;exitY=0;exitDx=0;exitDy=0;entryX=0;entryY=0.5;entryDx=0;entryDy=0;" parent="1" source="Y-UZMQaGsz35Z4EGQbIQ-4" target="Y-UZMQaGsz35Z4EGQbIQ-36" edge="1">
          <mxGeometry relative="1" as="geometry" />
        </mxCell>
        <mxCell id="Y-UZMQaGsz35Z4EGQbIQ-48" style="edgeStyle=orthogonalEdgeStyle;rounded=0;orthogonalLoop=1;jettySize=auto;html=1;exitX=1;exitY=1;exitDx=0;exitDy=0;entryX=0;entryY=0.5;entryDx=0;entryDy=0;" parent="1" source="Y-UZMQaGsz35Z4EGQbIQ-4" target="Y-UZMQaGsz35Z4EGQbIQ-17" edge="1">
          <mxGeometry relative="1" as="geometry" />
        </mxCell>
        <mxCell id="Y-UZMQaGsz35Z4EGQbIQ-49" style="edgeStyle=orthogonalEdgeStyle;rounded=0;orthogonalLoop=1;jettySize=auto;html=1;exitX=0;exitY=1;exitDx=0;exitDy=0;entryX=1;entryY=0.5;entryDx=0;entryDy=0;" parent="1" source="Y-UZMQaGsz35Z4EGQbIQ-4" target="Y-UZMQaGsz35Z4EGQbIQ-18" edge="1">
          <mxGeometry relative="1" as="geometry" />
        </mxCell>
        <mxCell id="Y-UZMQaGsz35Z4EGQbIQ-4" value="Robot Arm Control Method" style="ellipse;whiteSpace=wrap;html=1;aspect=fixed;" parent="1" vertex="1">
          <mxGeometry x="2260" y="1117.5" width="120" height="120" as="geometry" />
        </mxCell>
        <mxCell id="Y-UZMQaGsz35Z4EGQbIQ-16" value="ArtiMinds RPS" style="ellipse;whiteSpace=wrap;html=1;" parent="1" vertex="1">
          <mxGeometry x="2260" y="1050" width="120" height="45" as="geometry" />
        </mxCell>
        <mxCell id="Y-UZMQaGsz35Z4EGQbIQ-17" value="UR_RTDE" style="ellipse;whiteSpace=wrap;html=1;" parent="1" vertex="1">
          <mxGeometry x="2390" y="1197" width="120" height="45" as="geometry" />
        </mxCell>
        <mxCell id="Y-UZMQaGsz35Z4EGQbIQ-18" value="MoveIt" style="ellipse;whiteSpace=wrap;html=1;" parent="1" vertex="1">
          <mxGeometry x="2130" y="1197" width="120" height="45" as="geometry" />
        </mxCell>
        <mxCell id="Y-UZMQaGsz35Z4EGQbIQ-33" value="Polyscope" style="ellipse;whiteSpace=wrap;html=1;" parent="1" vertex="1">
          <mxGeometry x="2260" y="1255" width="120" height="45" as="geometry" />
        </mxCell>
        <mxCell id="Y-UZMQaGsz35Z4EGQbIQ-34" value="Robo DK" style="ellipse;whiteSpace=wrap;html=1;" parent="1" vertex="1">
          <mxGeometry x="2130" y="1112.5" width="120" height="45" as="geometry" />
        </mxCell>
        <mxCell id="Y-UZMQaGsz35Z4EGQbIQ-36" value="Octopuz" style="ellipse;whiteSpace=wrap;html=1;" parent="1" vertex="1">
          <mxGeometry x="2390" y="1112.5" width="120" height="45" as="geometry" />
        </mxCell>
        <mxCell id="5A24W4kJKt_u-pnmxVpB-6" style="edgeStyle=orthogonalEdgeStyle;rounded=0;orthogonalLoop=1;jettySize=auto;html=1;exitX=0;exitY=0.5;exitDx=0;exitDy=0;entryX=1;entryY=0.5;entryDx=0;entryDy=0;" parent="1" source="5A24W4kJKt_u-pnmxVpB-2" target="5A24W4kJKt_u-pnmxVpB-3" edge="1">
          <mxGeometry relative="1" as="geometry">
            <Array as="points">
              <mxPoint x="1170" y="1246.37" />
            </Array>
          </mxGeometry>
        </mxCell>
        <mxCell id="5A24W4kJKt_u-pnmxVpB-7" style="edgeStyle=orthogonalEdgeStyle;rounded=0;orthogonalLoop=1;jettySize=auto;html=1;exitX=0;exitY=0.5;exitDx=0;exitDy=0;entryX=1;entryY=0.5;entryDx=0;entryDy=0;" parent="1" source="5A24W4kJKt_u-pnmxVpB-2" target="5A24W4kJKt_u-pnmxVpB-4" edge="1">
          <mxGeometry relative="1" as="geometry">
            <Array as="points">
              <mxPoint x="1170" y="1317.37" />
            </Array>
          </mxGeometry>
        </mxCell>
        <mxCell id="5A24W4kJKt_u-pnmxVpB-2" value="Push and Pick Up" style="ellipse;whiteSpace=wrap;html=1;" parent="1" vertex="1">
          <mxGeometry x="1170" y="1259.37" width="120" height="45" as="geometry" />
        </mxCell>
        <mxCell id="5A24W4kJKt_u-pnmxVpB-3" value="Longitudinal" style="ellipse;whiteSpace=wrap;html=1;" parent="1" vertex="1">
          <mxGeometry x="1030" y="1223.75" width="120" height="45" as="geometry" />
        </mxCell>
        <mxCell id="5A24W4kJKt_u-pnmxVpB-4" value="Transverse" style="ellipse;whiteSpace=wrap;html=1;" parent="1" vertex="1">
          <mxGeometry x="1030" y="1295" width="120" height="45" as="geometry" />
        </mxCell>
        <mxCell id="5A24W4kJKt_u-pnmxVpB-12" value="Electromagnet" style="ellipse;whiteSpace=wrap;html=1;" parent="1" vertex="1">
          <mxGeometry x="710" y="1071.87" width="120" height="45" as="geometry" />
        </mxCell>
        <mxCell id="dCe7HrVQwJu5idECz22S-1" value="A combination of both may be useful in case the precision is not enough" style="text;html=1;strokeColor=#FF1E05;fillColor=none;align=center;verticalAlign=middle;whiteSpace=wrap;rounded=0;" parent="1" vertex="1">
          <mxGeometry x="660" y="1332.5" width="140" height="60" as="geometry" />
        </mxCell>
        <mxCell id="NSV-x89W4Y5btYxZHlU7-6" style="edgeStyle=orthogonalEdgeStyle;rounded=0;orthogonalLoop=1;jettySize=auto;html=1;exitX=0;exitY=0;exitDx=0;exitDy=0;entryX=1;entryY=0.5;entryDx=0;entryDy=0;" parent="1" source="DmpDktqdWVQR6J1gC0hd-7" target="DmpDktqdWVQR6J1gC0hd-8" edge="1">
          <mxGeometry relative="1" as="geometry" />
        </mxCell>
        <mxCell id="NSV-x89W4Y5btYxZHlU7-8" style="edgeStyle=orthogonalEdgeStyle;rounded=0;orthogonalLoop=1;jettySize=auto;html=1;exitX=1;exitY=0;exitDx=0;exitDy=0;entryX=0;entryY=0.5;entryDx=0;entryDy=0;" parent="1" source="DmpDktqdWVQR6J1gC0hd-7" target="DmpDktqdWVQR6J1gC0hd-19" edge="1">
          <mxGeometry relative="1" as="geometry" />
        </mxCell>
        <mxCell id="kOs0mFuBl2WWaeapR9IJ-3" style="edgeStyle=orthogonalEdgeStyle;rounded=0;orthogonalLoop=1;jettySize=auto;html=1;exitX=0;exitY=1;exitDx=0;exitDy=0;entryX=1;entryY=0.5;entryDx=0;entryDy=0;" parent="1" source="DmpDktqdWVQR6J1gC0hd-7" target="kOs0mFuBl2WWaeapR9IJ-2" edge="1">
          <mxGeometry relative="1" as="geometry" />
        </mxCell>
        <mxCell id="kOs0mFuBl2WWaeapR9IJ-4" style="edgeStyle=orthogonalEdgeStyle;rounded=0;orthogonalLoop=1;jettySize=auto;html=1;exitX=1;exitY=1;exitDx=0;exitDy=0;entryX=0;entryY=0.5;entryDx=0;entryDy=0;" parent="1" source="DmpDktqdWVQR6J1gC0hd-7" target="kOs0mFuBl2WWaeapR9IJ-1" edge="1">
          <mxGeometry relative="1" as="geometry" />
        </mxCell>
        <mxCell id="DmpDktqdWVQR6J1gC0hd-7" value="Overlaying Controller Communication" style="ellipse;whiteSpace=wrap;html=1;aspect=fixed;" parent="1" vertex="1">
          <mxGeometry x="2260" y="1455" width="120" height="120" as="geometry" />
        </mxCell>
        <mxCell id="DmpDktqdWVQR6J1gC0hd-8" value="Profinet" style="ellipse;whiteSpace=wrap;html=1;" parent="1" vertex="1">
          <mxGeometry x="2130" y="1450.5" width="120" height="45" as="geometry" />
        </mxCell>
        <mxCell id="DmpDktqdWVQR6J1gC0hd-9" value="RIB" style="ellipse;whiteSpace=wrap;html=1;" parent="1" vertex="1">
          <mxGeometry x="2190" y="1595" width="120" height="45" as="geometry" />
        </mxCell>
        <mxCell id="DmpDktqdWVQR6J1gC0hd-19" value="&lt;div&gt;Modbus&lt;/div&gt;" style="ellipse;whiteSpace=wrap;html=1;" parent="1" vertex="1">
          <mxGeometry x="2390" y="1450.5" width="120" height="45" as="geometry" />
        </mxCell>
        <mxCell id="NSV-x89W4Y5btYxZHlU7-12" style="edgeStyle=orthogonalEdgeStyle;rounded=0;orthogonalLoop=1;jettySize=auto;html=1;exitX=0;exitY=0.5;exitDx=0;exitDy=0;entryX=1;entryY=0.5;entryDx=0;entryDy=0;" parent="1" source="NSV-x89W4Y5btYxZHlU7-15" target="NSV-x89W4Y5btYxZHlU7-28" edge="1">
          <mxGeometry relative="1" as="geometry" />
        </mxCell>
        <mxCell id="NSV-x89W4Y5btYxZHlU7-13" style="edgeStyle=orthogonalEdgeStyle;rounded=0;orthogonalLoop=1;jettySize=auto;html=1;exitX=1;exitY=0.5;exitDx=0;exitDy=0;entryX=0;entryY=0.5;entryDx=0;entryDy=0;" parent="1" source="NSV-x89W4Y5btYxZHlU7-15" target="NSV-x89W4Y5btYxZHlU7-23" edge="1">
          <mxGeometry relative="1" as="geometry" />
        </mxCell>
        <mxCell id="NSV-x89W4Y5btYxZHlU7-14" style="edgeStyle=orthogonalEdgeStyle;rounded=0;orthogonalLoop=1;jettySize=auto;html=1;exitX=0.5;exitY=1;exitDx=0;exitDy=0;entryX=0.5;entryY=0;entryDx=0;entryDy=0;" parent="1" source="NSV-x89W4Y5btYxZHlU7-15" target="NSV-x89W4Y5btYxZHlU7-34" edge="1">
          <mxGeometry relative="1" as="geometry" />
        </mxCell>
        <mxCell id="LB_BIZ6fuCPDCH63aikm-96" style="edgeStyle=orthogonalEdgeStyle;rounded=0;orthogonalLoop=1;jettySize=auto;html=1;exitX=0.5;exitY=0;exitDx=0;exitDy=0;entryX=0.5;entryY=1;entryDx=0;entryDy=0;" parent="1" source="NSV-x89W4Y5btYxZHlU7-15" target="LB_BIZ6fuCPDCH63aikm-87" edge="1">
          <mxGeometry relative="1" as="geometry" />
        </mxCell>
        <mxCell id="NSV-x89W4Y5btYxZHlU7-15" value="Recycling Finished Products" style="ellipse;whiteSpace=wrap;html=1;aspect=fixed;" parent="1" vertex="1">
          <mxGeometry x="1440" y="1875.63" width="120" height="120" as="geometry" />
        </mxCell>
        <mxCell id="NSV-x89W4Y5btYxZHlU7-16" value="Force &lt;br&gt;detection" style="ellipse;whiteSpace=wrap;html=1;fillColor=#FFFFFF;" parent="1" vertex="1">
          <mxGeometry x="1750" y="1995.5100000000002" width="120" height="45" as="geometry" />
        </mxCell>
        <mxCell id="NSV-x89W4Y5btYxZHlU7-17" value="Camera" style="ellipse;whiteSpace=wrap;html=1;" parent="1" vertex="1">
          <mxGeometry x="1750" y="1939.88" width="120" height="45" as="geometry" />
        </mxCell>
        <mxCell id="NSV-x89W4Y5btYxZHlU7-18" value="Magazine" style="ellipse;whiteSpace=wrap;html=1;" parent="1" vertex="1">
          <mxGeometry x="1750" y="1882.38" width="120" height="45" as="geometry" />
        </mxCell>
        <mxCell id="NSV-x89W4Y5btYxZHlU7-19" style="edgeStyle=orthogonalEdgeStyle;rounded=0;orthogonalLoop=1;jettySize=auto;html=1;exitX=1;exitY=0.5;exitDx=0;exitDy=0;entryX=0;entryY=0.5;entryDx=0;entryDy=0;" parent="1" source="NSV-x89W4Y5btYxZHlU7-23" target="NSV-x89W4Y5btYxZHlU7-48" edge="1">
          <mxGeometry relative="1" as="geometry">
            <Array as="points">
              <mxPoint x="1730" y="1936" />
              <mxPoint x="1730" y="1845" />
            </Array>
          </mxGeometry>
        </mxCell>
        <mxCell id="NSV-x89W4Y5btYxZHlU7-20" style="edgeStyle=orthogonalEdgeStyle;rounded=0;orthogonalLoop=1;jettySize=auto;html=1;exitX=1;exitY=0.5;exitDx=0;exitDy=0;entryX=0;entryY=0.5;entryDx=0;entryDy=0;" parent="1" source="NSV-x89W4Y5btYxZHlU7-23" target="NSV-x89W4Y5btYxZHlU7-18" edge="1">
          <mxGeometry relative="1" as="geometry">
            <Array as="points">
              <mxPoint x="1730" y="1936" />
              <mxPoint x="1730" y="1905" />
            </Array>
          </mxGeometry>
        </mxCell>
        <mxCell id="NSV-x89W4Y5btYxZHlU7-21" style="edgeStyle=orthogonalEdgeStyle;rounded=0;orthogonalLoop=1;jettySize=auto;html=1;exitX=1;exitY=0.5;exitDx=0;exitDy=0;entryX=0;entryY=0.5;entryDx=0;entryDy=0;" parent="1" source="NSV-x89W4Y5btYxZHlU7-23" target="NSV-x89W4Y5btYxZHlU7-17" edge="1">
          <mxGeometry relative="1" as="geometry">
            <Array as="points">
              <mxPoint x="1730" y="1936" />
              <mxPoint x="1730" y="1962" />
            </Array>
          </mxGeometry>
        </mxCell>
        <mxCell id="NSV-x89W4Y5btYxZHlU7-22" style="edgeStyle=orthogonalEdgeStyle;rounded=0;orthogonalLoop=1;jettySize=auto;html=1;exitX=1;exitY=0.5;exitDx=0;exitDy=0;entryX=0;entryY=0.5;entryDx=0;entryDy=0;" parent="1" source="NSV-x89W4Y5btYxZHlU7-23" target="NSV-x89W4Y5btYxZHlU7-16" edge="1">
          <mxGeometry relative="1" as="geometry">
            <Array as="points">
              <mxPoint x="1730" y="1936" />
              <mxPoint x="1730" y="2018" />
            </Array>
          </mxGeometry>
        </mxCell>
        <mxCell id="NSV-x89W4Y5btYxZHlU7-23" value="Organize individual components" style="rounded=0;whiteSpace=wrap;html=1;" parent="1" vertex="1">
          <mxGeometry x="1580" y="1910.63" width="140" height="50" as="geometry" />
        </mxCell>
        <mxCell id="NSV-x89W4Y5btYxZHlU7-24" style="edgeStyle=orthogonalEdgeStyle;rounded=0;orthogonalLoop=1;jettySize=auto;html=1;exitX=0;exitY=0.5;exitDx=0;exitDy=0;entryX=1;entryY=0.5;entryDx=0;entryDy=0;" parent="1" source="NSV-x89W4Y5btYxZHlU7-28" target="NSV-x89W4Y5btYxZHlU7-39" edge="1">
          <mxGeometry relative="1" as="geometry">
            <Array as="points">
              <mxPoint x="1270" y="1936" />
              <mxPoint x="1270" y="1846" />
            </Array>
          </mxGeometry>
        </mxCell>
        <mxCell id="NSV-x89W4Y5btYxZHlU7-25" style="edgeStyle=orthogonalEdgeStyle;rounded=0;orthogonalLoop=1;jettySize=auto;html=1;exitX=0;exitY=0.5;exitDx=0;exitDy=0;entryX=1;entryY=0.5;entryDx=0;entryDy=0;" parent="1" source="NSV-x89W4Y5btYxZHlU7-28" target="NSV-x89W4Y5btYxZHlU7-38" edge="1">
          <mxGeometry relative="1" as="geometry">
            <Array as="points">
              <mxPoint x="1270" y="1936" />
              <mxPoint x="1270" y="1906" />
            </Array>
          </mxGeometry>
        </mxCell>
        <mxCell id="NSV-x89W4Y5btYxZHlU7-26" style="edgeStyle=orthogonalEdgeStyle;rounded=0;orthogonalLoop=1;jettySize=auto;html=1;exitX=0;exitY=0.5;exitDx=0;exitDy=0;entryX=1;entryY=0.5;entryDx=0;entryDy=0;" parent="1" source="NSV-x89W4Y5btYxZHlU7-28" target="NSV-x89W4Y5btYxZHlU7-41" edge="1">
          <mxGeometry relative="1" as="geometry">
            <Array as="points">
              <mxPoint x="1270" y="1936" />
              <mxPoint x="1270" y="1963" />
            </Array>
          </mxGeometry>
        </mxCell>
        <mxCell id="NSV-x89W4Y5btYxZHlU7-27" style="edgeStyle=orthogonalEdgeStyle;rounded=0;orthogonalLoop=1;jettySize=auto;html=1;exitX=0;exitY=0.5;exitDx=0;exitDy=0;entryX=1;entryY=0.5;entryDx=0;entryDy=0;" parent="1" source="NSV-x89W4Y5btYxZHlU7-28" target="NSV-x89W4Y5btYxZHlU7-44" edge="1">
          <mxGeometry relative="1" as="geometry">
            <Array as="points">
              <mxPoint x="1270" y="1936" />
              <mxPoint x="1270" y="2019" />
            </Array>
          </mxGeometry>
        </mxCell>
        <mxCell id="NSV-x89W4Y5btYxZHlU7-28" value="Disassemble blocks from base plate" style="rounded=0;whiteSpace=wrap;html=1;" parent="1" vertex="1">
          <mxGeometry x="1280" y="1910.63" width="140" height="50" as="geometry" />
        </mxCell>
        <mxCell id="NSV-x89W4Y5btYxZHlU7-29" value="Camera" style="ellipse;whiteSpace=wrap;html=1;" parent="1" vertex="1">
          <mxGeometry x="1310" y="2100" width="120" height="45" as="geometry" />
        </mxCell>
        <mxCell id="NSV-x89W4Y5btYxZHlU7-30" value="Overlaying &lt;br&gt;Controller" style="ellipse;whiteSpace=wrap;html=1;fillColor=#FFFFFF;" parent="1" vertex="1">
          <mxGeometry x="1440" y="2100" width="120" height="45" as="geometry" />
        </mxCell>
        <mxCell id="NSV-x89W4Y5btYxZHlU7-31" style="edgeStyle=orthogonalEdgeStyle;rounded=0;orthogonalLoop=1;jettySize=auto;html=1;exitX=0.5;exitY=1;exitDx=0;exitDy=0;entryX=0.5;entryY=0;entryDx=0;entryDy=0;" parent="1" source="NSV-x89W4Y5btYxZHlU7-34" target="NSV-x89W4Y5btYxZHlU7-30" edge="1">
          <mxGeometry relative="1" as="geometry" />
        </mxCell>
        <mxCell id="NSV-x89W4Y5btYxZHlU7-32" style="edgeStyle=orthogonalEdgeStyle;rounded=0;orthogonalLoop=1;jettySize=auto;html=1;exitX=0.5;exitY=1;exitDx=0;exitDy=0;entryX=0.5;entryY=0;entryDx=0;entryDy=0;" parent="1" source="NSV-x89W4Y5btYxZHlU7-34" target="NSV-x89W4Y5btYxZHlU7-29" edge="1">
          <mxGeometry relative="1" as="geometry">
            <Array as="points">
              <mxPoint x="1500" y="2080" />
              <mxPoint x="1370" y="2080" />
            </Array>
          </mxGeometry>
        </mxCell>
        <mxCell id="NSV-x89W4Y5btYxZHlU7-33" style="edgeStyle=orthogonalEdgeStyle;rounded=0;orthogonalLoop=1;jettySize=auto;html=1;exitX=0.5;exitY=1;exitDx=0;exitDy=0;entryX=0.5;entryY=0;entryDx=0;entryDy=0;" parent="1" source="NSV-x89W4Y5btYxZHlU7-34" target="NSV-x89W4Y5btYxZHlU7-35" edge="1">
          <mxGeometry relative="1" as="geometry">
            <Array as="points">
              <mxPoint x="1500" y="2080" />
              <mxPoint x="1630" y="2080" />
            </Array>
          </mxGeometry>
        </mxCell>
        <mxCell id="NSV-x89W4Y5btYxZHlU7-34" value="Get information about the product composition" style="rounded=0;whiteSpace=wrap;html=1;" parent="1" vertex="1">
          <mxGeometry x="1430" y="2015.5000000000002" width="140" height="50" as="geometry" />
        </mxCell>
        <mxCell id="NSV-x89W4Y5btYxZHlU7-35" value="Profile detection" style="ellipse;whiteSpace=wrap;html=1;" parent="1" vertex="1">
          <mxGeometry x="1570" y="2100" width="120" height="45" as="geometry" />
        </mxCell>
        <mxCell id="NSV-x89W4Y5btYxZHlU7-36" style="edgeStyle=orthogonalEdgeStyle;rounded=0;orthogonalLoop=1;jettySize=auto;html=1;exitX=0;exitY=0.5;exitDx=0;exitDy=0;entryX=1;entryY=0.5;entryDx=0;entryDy=0;" parent="1" source="NSV-x89W4Y5btYxZHlU7-38" target="NSV-x89W4Y5btYxZHlU7-40" edge="1">
          <mxGeometry relative="1" as="geometry">
            <Array as="points">
              <mxPoint x="1130" y="1879" />
            </Array>
          </mxGeometry>
        </mxCell>
        <mxCell id="NSV-x89W4Y5btYxZHlU7-37" style="edgeStyle=orthogonalEdgeStyle;rounded=0;orthogonalLoop=1;jettySize=auto;html=1;exitX=0;exitY=0.5;exitDx=0;exitDy=0;entryX=1;entryY=0.5;entryDx=0;entryDy=0;" parent="1" source="NSV-x89W4Y5btYxZHlU7-38" target="NSV-x89W4Y5btYxZHlU7-46" edge="1">
          <mxGeometry relative="1" as="geometry">
            <Array as="points">
              <mxPoint x="1130" y="1932" />
            </Array>
          </mxGeometry>
        </mxCell>
        <mxCell id="NSV-x89W4Y5btYxZHlU7-38" value="Kipping motion" style="ellipse;whiteSpace=wrap;html=1;fillColor=#FFFFFF;" parent="1" vertex="1">
          <mxGeometry x="1130" y="1883" width="120" height="45" as="geometry" />
        </mxCell>
        <mxCell id="NSV-x89W4Y5btYxZHlU7-39" value="Base plate securing fixture" style="ellipse;whiteSpace=wrap;html=1;" parent="1" vertex="1">
          <mxGeometry x="1130" y="1823" width="120" height="45" as="geometry" />
        </mxCell>
        <mxCell id="NSV-x89W4Y5btYxZHlU7-40" value="Longitudinal" style="ellipse;whiteSpace=wrap;html=1;" parent="1" vertex="1">
          <mxGeometry x="1040" y="1858.56" width="70" height="40" as="geometry" />
        </mxCell>
        <mxCell id="NSV-x89W4Y5btYxZHlU7-41" value="Pick Up" style="ellipse;whiteSpace=wrap;html=1;" parent="1" vertex="1">
          <mxGeometry x="1130" y="1940.5" width="120" height="45" as="geometry" />
        </mxCell>
        <mxCell id="NSV-x89W4Y5btYxZHlU7-42" style="edgeStyle=orthogonalEdgeStyle;rounded=0;orthogonalLoop=1;jettySize=auto;html=1;exitX=0;exitY=0.5;exitDx=0;exitDy=0;entryX=1;entryY=0.5;entryDx=0;entryDy=0;" parent="1" source="NSV-x89W4Y5btYxZHlU7-44" target="NSV-x89W4Y5btYxZHlU7-45" edge="1">
          <mxGeometry relative="1" as="geometry">
            <Array as="points">
              <mxPoint x="1130" y="2046" />
            </Array>
          </mxGeometry>
        </mxCell>
        <mxCell id="NSV-x89W4Y5btYxZHlU7-43" style="edgeStyle=orthogonalEdgeStyle;rounded=0;orthogonalLoop=1;jettySize=auto;html=1;exitX=0;exitY=0.5;exitDx=0;exitDy=0;entryX=1;entryY=0.5;entryDx=0;entryDy=0;" parent="1" source="NSV-x89W4Y5btYxZHlU7-44" target="NSV-x89W4Y5btYxZHlU7-47" edge="1">
          <mxGeometry relative="1" as="geometry">
            <Array as="points">
              <mxPoint x="1130" y="1994" />
            </Array>
          </mxGeometry>
        </mxCell>
        <mxCell id="NSV-x89W4Y5btYxZHlU7-44" value="Push and Pick Up" style="ellipse;whiteSpace=wrap;html=1;" parent="1" vertex="1">
          <mxGeometry x="1130" y="1996.13" width="120" height="45" as="geometry" />
        </mxCell>
        <mxCell id="NSV-x89W4Y5btYxZHlU7-45" value="Transverse" style="ellipse;whiteSpace=wrap;html=1;" parent="1" vertex="1">
          <mxGeometry x="1040" y="2025.5" width="70" height="40" as="geometry" />
        </mxCell>
        <mxCell id="NSV-x89W4Y5btYxZHlU7-46" value="Transverse" style="ellipse;whiteSpace=wrap;html=1;fillColor=#FFFFFF;" parent="1" vertex="1">
          <mxGeometry x="1040" y="1910.44" width="70" height="42" as="geometry" />
        </mxCell>
        <mxCell id="NSV-x89W4Y5btYxZHlU7-47" value="Longitudinal" style="ellipse;whiteSpace=wrap;html=1;" parent="1" vertex="1">
          <mxGeometry x="1040" y="1973.75" width="70" height="40" as="geometry" />
        </mxCell>
        <mxCell id="NSV-x89W4Y5btYxZHlU7-48" value="Overlaying&lt;br&gt;&amp;nbsp;Controller" style="ellipse;whiteSpace=wrap;html=1;" parent="1" vertex="1">
          <mxGeometry x="1750" y="1822.38" width="120" height="45" as="geometry" />
        </mxCell>
        <mxCell id="NSV-x89W4Y5btYxZHlU7-49" style="edgeStyle=orthogonalEdgeStyle;rounded=0;orthogonalLoop=1;jettySize=auto;html=1;exitX=1;exitY=0.5;exitDx=0;exitDy=0;entryX=0;entryY=0.5;entryDx=0;entryDy=0;" parent="1" source="NSV-x89W4Y5btYxZHlU7-51" target="NSV-x89W4Y5btYxZHlU7-60" edge="1">
          <mxGeometry relative="1" as="geometry">
            <Array as="points">
              <mxPoint x="2760" y="1096.25" />
              <mxPoint x="2760" y="1014.25" />
            </Array>
          </mxGeometry>
        </mxCell>
        <mxCell id="NSV-x89W4Y5btYxZHlU7-50" style="edgeStyle=orthogonalEdgeStyle;rounded=0;orthogonalLoop=1;jettySize=auto;html=1;exitX=1;exitY=0.5;exitDx=0;exitDy=0;entryX=0;entryY=0.5;entryDx=0;entryDy=0;" parent="1" source="NSV-x89W4Y5btYxZHlU7-51" target="NSV-x89W4Y5btYxZHlU7-63" edge="1">
          <mxGeometry relative="1" as="geometry">
            <Array as="points">
              <mxPoint x="2760" y="1096.25" />
              <mxPoint x="2760" y="1178.25" />
            </Array>
          </mxGeometry>
        </mxCell>
        <mxCell id="NSV-x89W4Y5btYxZHlU7-51" value="Robot Arm Control Method" style="ellipse;whiteSpace=wrap;html=1;aspect=fixed;" parent="1" vertex="1">
          <mxGeometry x="2630" y="1036.25" width="120" height="120" as="geometry" />
        </mxCell>
        <mxCell id="NSV-x89W4Y5btYxZHlU7-52" value="Artiminds RPS" style="ellipse;whiteSpace=wrap;html=1;" parent="1" vertex="1">
          <mxGeometry x="3020" y="1286.25" width="60" height="45" as="geometry" />
        </mxCell>
        <mxCell id="NSV-x89W4Y5btYxZHlU7-53" value="UR_RTDE" style="ellipse;whiteSpace=wrap;html=1;" parent="1" vertex="1">
          <mxGeometry x="2910" y="956.25" width="60" height="45" as="geometry" />
        </mxCell>
        <mxCell id="NSV-x89W4Y5btYxZHlU7-54" value="MoveIt" style="ellipse;whiteSpace=wrap;html=1;" parent="1" vertex="1">
          <mxGeometry x="2910" y="1026.25" width="60" height="45" as="geometry" />
        </mxCell>
        <mxCell id="NSV-x89W4Y5btYxZHlU7-55" value="Polyscope" style="ellipse;whiteSpace=wrap;html=1;" parent="1" vertex="1">
          <mxGeometry x="3020" y="1123.69" width="60" height="45" as="geometry" />
        </mxCell>
        <mxCell id="NSV-x89W4Y5btYxZHlU7-56" value="Robo DK" style="ellipse;whiteSpace=wrap;html=1;" parent="1" vertex="1">
          <mxGeometry x="3020" y="1234.25" width="60" height="45" as="geometry" />
        </mxCell>
        <mxCell id="NSV-x89W4Y5btYxZHlU7-57" value="Octopuz" style="ellipse;whiteSpace=wrap;html=1;" parent="1" vertex="1">
          <mxGeometry x="3020" y="1176.88" width="60" height="48.75" as="geometry" />
        </mxCell>
        <mxCell id="NSV-x89W4Y5btYxZHlU7-58" style="edgeStyle=orthogonalEdgeStyle;rounded=0;orthogonalLoop=1;jettySize=auto;html=1;exitX=1;exitY=0.5;exitDx=0;exitDy=0;entryX=0;entryY=0.5;entryDx=0;entryDy=0;" parent="1" source="NSV-x89W4Y5btYxZHlU7-60" target="NSV-x89W4Y5btYxZHlU7-53" edge="1">
          <mxGeometry relative="1" as="geometry" />
        </mxCell>
        <mxCell id="NSV-x89W4Y5btYxZHlU7-59" style="edgeStyle=orthogonalEdgeStyle;rounded=0;orthogonalLoop=1;jettySize=auto;html=1;exitX=1;exitY=0.5;exitDx=0;exitDy=0;entryX=0;entryY=0.5;entryDx=0;entryDy=0;" parent="1" source="NSV-x89W4Y5btYxZHlU7-60" target="NSV-x89W4Y5btYxZHlU7-54" edge="1">
          <mxGeometry relative="1" as="geometry" />
        </mxCell>
        <mxCell id="NSV-x89W4Y5btYxZHlU7-60" value="Development&lt;br&gt;Tools" style="ellipse;whiteSpace=wrap;html=1;" parent="1" vertex="1">
          <mxGeometry x="2780" y="991.25" width="90" height="45" as="geometry" />
        </mxCell>
        <mxCell id="NSV-x89W4Y5btYxZHlU7-61" style="edgeStyle=orthogonalEdgeStyle;rounded=0;orthogonalLoop=1;jettySize=auto;html=1;exitX=1;exitY=0.5;exitDx=0;exitDy=0;entryX=0;entryY=0.5;entryDx=0;entryDy=0;" parent="1" source="NSV-x89W4Y5btYxZHlU7-63" target="NSV-x89W4Y5btYxZHlU7-65" edge="1">
          <mxGeometry relative="1" as="geometry" />
        </mxCell>
        <mxCell id="NSV-x89W4Y5btYxZHlU7-62" style="edgeStyle=orthogonalEdgeStyle;rounded=0;orthogonalLoop=1;jettySize=auto;html=1;exitX=1;exitY=0.5;exitDx=0;exitDy=0;entryX=0;entryY=0.5;entryDx=0;entryDy=0;" parent="1" source="NSV-x89W4Y5btYxZHlU7-63" target="NSV-x89W4Y5btYxZHlU7-69" edge="1">
          <mxGeometry relative="1" as="geometry" />
        </mxCell>
        <mxCell id="NSV-x89W4Y5btYxZHlU7-63" value="Finished Products" style="ellipse;whiteSpace=wrap;html=1;" parent="1" vertex="1">
          <mxGeometry x="2780" y="1156.13" width="90" height="45" as="geometry" />
        </mxCell>
        <mxCell id="NSV-x89W4Y5btYxZHlU7-64" style="edgeStyle=orthogonalEdgeStyle;rounded=0;orthogonalLoop=1;jettySize=auto;html=1;exitX=1;exitY=0.5;exitDx=0;exitDy=0;entryX=0;entryY=0.5;entryDx=0;entryDy=0;" parent="1" source="NSV-x89W4Y5btYxZHlU7-65" target="NSV-x89W4Y5btYxZHlU7-55" edge="1">
          <mxGeometry relative="1" as="geometry" />
        </mxCell>
        <mxCell id="NSV-x89W4Y5btYxZHlU7-65" value="First Party" style="ellipse;whiteSpace=wrap;html=1;" parent="1" vertex="1">
          <mxGeometry x="2910" y="1123.69" width="90" height="45" as="geometry" />
        </mxCell>
        <mxCell id="NSV-x89W4Y5btYxZHlU7-66" style="edgeStyle=orthogonalEdgeStyle;rounded=0;orthogonalLoop=1;jettySize=auto;html=1;exitX=1;exitY=0.5;exitDx=0;exitDy=0;entryX=0;entryY=0.5;entryDx=0;entryDy=0;" parent="1" source="NSV-x89W4Y5btYxZHlU7-69" target="NSV-x89W4Y5btYxZHlU7-57" edge="1">
          <mxGeometry relative="1" as="geometry">
            <Array as="points">
              <mxPoint x="3000" y="1201.25" />
            </Array>
          </mxGeometry>
        </mxCell>
        <mxCell id="NSV-x89W4Y5btYxZHlU7-67" style="edgeStyle=orthogonalEdgeStyle;rounded=0;orthogonalLoop=1;jettySize=auto;html=1;exitX=1;exitY=0.5;exitDx=0;exitDy=0;entryX=0;entryY=0.5;entryDx=0;entryDy=0;" parent="1" source="NSV-x89W4Y5btYxZHlU7-69" target="NSV-x89W4Y5btYxZHlU7-56" edge="1">
          <mxGeometry relative="1" as="geometry" />
        </mxCell>
        <mxCell id="NSV-x89W4Y5btYxZHlU7-68" style="edgeStyle=orthogonalEdgeStyle;rounded=0;orthogonalLoop=1;jettySize=auto;html=1;exitX=1;exitY=0.5;exitDx=0;exitDy=0;entryX=0;entryY=0.5;entryDx=0;entryDy=0;" parent="1" source="NSV-x89W4Y5btYxZHlU7-69" target="NSV-x89W4Y5btYxZHlU7-52" edge="1">
          <mxGeometry relative="1" as="geometry">
            <Array as="points">
              <mxPoint x="3000" y="1308.25" />
            </Array>
          </mxGeometry>
        </mxCell>
        <mxCell id="NSV-x89W4Y5btYxZHlU7-69" value="Third Party" style="ellipse;whiteSpace=wrap;html=1;" parent="1" vertex="1">
          <mxGeometry x="2910" y="1234.25" width="90" height="45" as="geometry" />
        </mxCell>
        <mxCell id="NSV-x89W4Y5btYxZHlU7-70" style="edgeStyle=orthogonalEdgeStyle;rounded=0;orthogonalLoop=1;jettySize=auto;html=1;exitX=1;exitY=0.5;exitDx=0;exitDy=0;entryX=0;entryY=0.5;entryDx=0;entryDy=0;" parent="1" source="NSV-x89W4Y5btYxZHlU7-72" target="NSV-x89W4Y5btYxZHlU7-81" edge="1">
          <mxGeometry relative="1" as="geometry">
            <Array as="points">
              <mxPoint x="2770" y="1505" />
              <mxPoint x="2770" y="1423" />
            </Array>
          </mxGeometry>
        </mxCell>
        <mxCell id="NSV-x89W4Y5btYxZHlU7-71" style="edgeStyle=orthogonalEdgeStyle;rounded=0;orthogonalLoop=1;jettySize=auto;html=1;exitX=1;exitY=0.5;exitDx=0;exitDy=0;entryX=0;entryY=0.5;entryDx=0;entryDy=0;" parent="1" source="NSV-x89W4Y5btYxZHlU7-72" target="NSV-x89W4Y5btYxZHlU7-84" edge="1">
          <mxGeometry relative="1" as="geometry">
            <Array as="points">
              <mxPoint x="2770" y="1505" />
              <mxPoint x="2770" y="1587" />
            </Array>
          </mxGeometry>
        </mxCell>
        <mxCell id="NSV-x89W4Y5btYxZHlU7-72" value="Overlaying Controller Communicartion" style="ellipse;whiteSpace=wrap;html=1;aspect=fixed;" parent="1" vertex="1">
          <mxGeometry x="2640" y="1445" width="120" height="120" as="geometry" />
        </mxCell>
        <mxCell id="NSV-x89W4Y5btYxZHlU7-74" value="OPC-UA" style="ellipse;whiteSpace=wrap;html=1;" parent="1" vertex="1">
          <mxGeometry x="2920" y="1365" width="60" height="45" as="geometry" />
        </mxCell>
        <mxCell id="NSV-x89W4Y5btYxZHlU7-75" value="RIB" style="ellipse;whiteSpace=wrap;html=1;" parent="1" vertex="1">
          <mxGeometry x="2920" y="1435" width="60" height="45" as="geometry" />
        </mxCell>
        <mxCell id="NSV-x89W4Y5btYxZHlU7-79" style="edgeStyle=orthogonalEdgeStyle;rounded=0;orthogonalLoop=1;jettySize=auto;html=1;exitX=1;exitY=0.5;exitDx=0;exitDy=0;entryX=0;entryY=0.5;entryDx=0;entryDy=0;" parent="1" source="NSV-x89W4Y5btYxZHlU7-81" target="NSV-x89W4Y5btYxZHlU7-74" edge="1">
          <mxGeometry relative="1" as="geometry" />
        </mxCell>
        <mxCell id="NSV-x89W4Y5btYxZHlU7-80" style="edgeStyle=orthogonalEdgeStyle;rounded=0;orthogonalLoop=1;jettySize=auto;html=1;exitX=1;exitY=0.5;exitDx=0;exitDy=0;entryX=0;entryY=0.5;entryDx=0;entryDy=0;" parent="1" source="NSV-x89W4Y5btYxZHlU7-81" target="NSV-x89W4Y5btYxZHlU7-75" edge="1">
          <mxGeometry relative="1" as="geometry" />
        </mxCell>
        <mxCell id="NSV-x89W4Y5btYxZHlU7-81" value="IT Based" style="ellipse;whiteSpace=wrap;html=1;" parent="1" vertex="1">
          <mxGeometry x="2790" y="1400" width="90" height="45" as="geometry" />
        </mxCell>
        <mxCell id="NSV-x89W4Y5btYxZHlU7-82" style="edgeStyle=orthogonalEdgeStyle;rounded=0;orthogonalLoop=1;jettySize=auto;html=1;exitX=1;exitY=0.5;exitDx=0;exitDy=0;entryX=0;entryY=0.5;entryDx=0;entryDy=0;" parent="1" source="NSV-x89W4Y5btYxZHlU7-84" edge="1">
          <mxGeometry relative="1" as="geometry">
            <mxPoint x="2920" y="1554.94" as="targetPoint" />
          </mxGeometry>
        </mxCell>
        <mxCell id="NSV-x89W4Y5btYxZHlU7-83" style="edgeStyle=orthogonalEdgeStyle;rounded=0;orthogonalLoop=1;jettySize=auto;html=1;exitX=1;exitY=0.5;exitDx=0;exitDy=0;entryX=0;entryY=0.5;entryDx=0;entryDy=0;" parent="1" source="NSV-x89W4Y5btYxZHlU7-84" edge="1">
          <mxGeometry relative="1" as="geometry">
            <mxPoint x="2920" y="1665.5" as="targetPoint" />
          </mxGeometry>
        </mxCell>
        <mxCell id="NSV-x89W4Y5btYxZHlU7-84" value="OT Based" style="ellipse;whiteSpace=wrap;html=1;" parent="1" vertex="1">
          <mxGeometry x="2790" y="1564.88" width="90" height="45" as="geometry" />
        </mxCell>
        <mxCell id="NSV-x89W4Y5btYxZHlU7-91" value="&lt;div&gt;Modbus&lt;/div&gt;" style="ellipse;whiteSpace=wrap;html=1;" parent="1" vertex="1">
          <mxGeometry x="2940" y="1520" width="60" height="45" as="geometry" />
        </mxCell>
        <mxCell id="NSV-x89W4Y5btYxZHlU7-92" value="Profinet" style="ellipse;whiteSpace=wrap;html=1;" parent="1" vertex="1">
          <mxGeometry x="2940" y="1580" width="60" height="45" as="geometry" />
        </mxCell>
        <mxCell id="NSV-x89W4Y5btYxZHlU7-93" value="&lt;div&gt;Step 7&lt;/div&gt;" style="ellipse;whiteSpace=wrap;html=1;" parent="1" vertex="1">
          <mxGeometry x="2940" y="1640" width="60" height="45" as="geometry" />
        </mxCell>
        <mxCell id="2hkHsSnRgmPlp-JAB0Yl-1" value="Digital I/O" style="ellipse;whiteSpace=wrap;html=1;" parent="1" vertex="1">
          <mxGeometry x="2190" y="1390" width="120" height="45" as="geometry" />
        </mxCell>
        <mxCell id="2hkHsSnRgmPlp-JAB0Yl-3" value="OPC UA" style="ellipse;whiteSpace=wrap;html=1;" parent="1" vertex="1">
          <mxGeometry x="2330" y="1595" width="120" height="45" as="geometry" />
        </mxCell>
        <mxCell id="2hkHsSnRgmPlp-JAB0Yl-5" value="S7comm" style="ellipse;whiteSpace=wrap;html=1;" parent="1" vertex="1">
          <mxGeometry x="2330" y="1387.5" width="120" height="50" as="geometry" />
        </mxCell>
        <mxCell id="kOs0mFuBl2WWaeapR9IJ-1" value="Ethernet IP" style="ellipse;whiteSpace=wrap;html=1;" parent="1" vertex="1">
          <mxGeometry x="2390" y="1535" width="120" height="45" as="geometry" />
        </mxCell>
        <mxCell id="kOs0mFuBl2WWaeapR9IJ-2" value="EtherCat" style="ellipse;whiteSpace=wrap;html=1;" parent="1" vertex="1">
          <mxGeometry x="2130" y="1535" width="120" height="45" as="geometry" />
        </mxCell>
        <mxCell id="LB_BIZ6fuCPDCH63aikm-1" value="" style="rounded=1;whiteSpace=wrap;html=1;fillColor=none;" parent="1" vertex="1">
          <mxGeometry x="2890" y="40" width="530" height="220" as="geometry" />
        </mxCell>
        <mxCell id="LB_BIZ6fuCPDCH63aikm-4" style="edgeStyle=orthogonalEdgeStyle;rounded=0;orthogonalLoop=1;jettySize=auto;html=1;exitX=1;exitY=0.5;exitDx=0;exitDy=0;entryX=0;entryY=0.5;entryDx=0;entryDy=0;" parent="1" source="LB_BIZ6fuCPDCH63aikm-5" target="LB_BIZ6fuCPDCH63aikm-14" edge="1">
          <mxGeometry relative="1" as="geometry" />
        </mxCell>
        <mxCell id="LB_BIZ6fuCPDCH63aikm-5" value="Energy" style="ellipse;whiteSpace=wrap;html=1;" parent="1" vertex="1">
          <mxGeometry x="2750" y="70" width="120" height="60" as="geometry" />
        </mxCell>
        <mxCell id="LB_BIZ6fuCPDCH63aikm-6" style="edgeStyle=orthogonalEdgeStyle;rounded=0;orthogonalLoop=1;jettySize=auto;html=1;exitX=1;exitY=0.5;exitDx=0;exitDy=0;entryX=0;entryY=0.5;entryDx=0;entryDy=0;" parent="1" source="LB_BIZ6fuCPDCH63aikm-7" target="LB_BIZ6fuCPDCH63aikm-34" edge="1">
          <mxGeometry relative="1" as="geometry" />
        </mxCell>
        <mxCell id="LB_BIZ6fuCPDCH63aikm-7" value="Assembled Products" style="ellipse;whiteSpace=wrap;html=1;" parent="1" vertex="1">
          <mxGeometry x="2750" y="170" width="120" height="60" as="geometry" />
        </mxCell>
        <mxCell id="LB_BIZ6fuCPDCH63aikm-10" value="Base Plates" style="ellipse;whiteSpace=wrap;html=1;" parent="1" vertex="1">
          <mxGeometry x="3440" y="70" width="120" height="60" as="geometry" />
        </mxCell>
        <mxCell id="LB_BIZ6fuCPDCH63aikm-11" value="Blocks" style="ellipse;whiteSpace=wrap;html=1;" parent="1" vertex="1">
          <mxGeometry x="3440" y="170" width="120" height="60" as="geometry" />
        </mxCell>
        <mxCell id="LB_BIZ6fuCPDCH63aikm-42" style="edgeStyle=orthogonalEdgeStyle;rounded=0;orthogonalLoop=1;jettySize=auto;html=1;exitX=1;exitY=0.5;exitDx=0;exitDy=0;entryX=0;entryY=0.5;entryDx=0;entryDy=0;" parent="1" source="LB_BIZ6fuCPDCH63aikm-14" target="LB_BIZ6fuCPDCH63aikm-35" edge="1">
          <mxGeometry relative="1" as="geometry" />
        </mxCell>
        <mxCell id="LB_BIZ6fuCPDCH63aikm-14" value="Transform into Kinetic Energy" style="rounded=0;whiteSpace=wrap;html=1;" parent="1" vertex="1">
          <mxGeometry x="2920" y="75" width="140" height="50" as="geometry" />
        </mxCell>
        <mxCell id="LB_BIZ6fuCPDCH63aikm-40" style="edgeStyle=orthogonalEdgeStyle;rounded=0;orthogonalLoop=1;jettySize=auto;html=1;exitX=1;exitY=0.5;exitDx=0;exitDy=0;entryX=0;entryY=0.5;entryDx=0;entryDy=0;" parent="1" source="LB_BIZ6fuCPDCH63aikm-19" target="LB_BIZ6fuCPDCH63aikm-11" edge="1">
          <mxGeometry relative="1" as="geometry">
            <Array as="points">
              <mxPoint x="3430" y="200" />
              <mxPoint x="3430" y="200" />
            </Array>
          </mxGeometry>
        </mxCell>
        <mxCell id="LB_BIZ6fuCPDCH63aikm-41" style="edgeStyle=orthogonalEdgeStyle;rounded=0;orthogonalLoop=1;jettySize=auto;html=1;exitX=1;exitY=0.5;exitDx=0;exitDy=0;entryX=0;entryY=0.5;entryDx=0;entryDy=0;" parent="1" source="LB_BIZ6fuCPDCH63aikm-19" target="LB_BIZ6fuCPDCH63aikm-10" edge="1">
          <mxGeometry relative="1" as="geometry">
            <Array as="points">
              <mxPoint x="3410" y="200" />
              <mxPoint x="3410" y="100" />
            </Array>
          </mxGeometry>
        </mxCell>
        <mxCell id="LB_BIZ6fuCPDCH63aikm-19" value="Organize individual components" style="rounded=0;whiteSpace=wrap;html=1;" parent="1" vertex="1">
          <mxGeometry x="3261" y="175" width="140" height="50" as="geometry" />
        </mxCell>
        <mxCell id="LB_BIZ6fuCPDCH63aikm-44" style="edgeStyle=orthogonalEdgeStyle;rounded=0;orthogonalLoop=1;jettySize=auto;html=1;exitX=0.5;exitY=1;exitDx=0;exitDy=0;entryX=0.5;entryY=0;entryDx=0;entryDy=0;" parent="1" source="LB_BIZ6fuCPDCH63aikm-22" target="LB_BIZ6fuCPDCH63aikm-19" edge="1">
          <mxGeometry relative="1" as="geometry" />
        </mxCell>
        <mxCell id="LB_BIZ6fuCPDCH63aikm-22" value="Disassemble blocks from the base plate" style="rounded=0;whiteSpace=wrap;html=1;" parent="1" vertex="1">
          <mxGeometry x="3261" y="75" width="140" height="50" as="geometry" />
        </mxCell>
        <mxCell id="LB_BIZ6fuCPDCH63aikm-45" style="edgeStyle=orthogonalEdgeStyle;rounded=0;orthogonalLoop=1;jettySize=auto;html=1;exitX=1;exitY=0.5;exitDx=0;exitDy=0;entryX=0;entryY=0.5;entryDx=0;entryDy=0;" parent="1" source="LB_BIZ6fuCPDCH63aikm-34" target="LB_BIZ6fuCPDCH63aikm-19" edge="1">
          <mxGeometry relative="1" as="geometry" />
        </mxCell>
        <mxCell id="LB_BIZ6fuCPDCH63aikm-34" value="Get information about the product composition" style="rounded=0;whiteSpace=wrap;html=1;" parent="1" vertex="1">
          <mxGeometry x="2920" y="175" width="140" height="50" as="geometry" />
        </mxCell>
        <mxCell id="LB_BIZ6fuCPDCH63aikm-43" style="edgeStyle=orthogonalEdgeStyle;rounded=0;orthogonalLoop=1;jettySize=auto;html=1;exitX=1;exitY=0.5;exitDx=0;exitDy=0;entryX=0;entryY=0.5;entryDx=0;entryDy=0;" parent="1" source="LB_BIZ6fuCPDCH63aikm-35" target="LB_BIZ6fuCPDCH63aikm-22" edge="1">
          <mxGeometry relative="1" as="geometry" />
        </mxCell>
        <mxCell id="LB_BIZ6fuCPDCH63aikm-35" value="Grab each individual block" style="rounded=0;whiteSpace=wrap;html=1;" parent="1" vertex="1">
          <mxGeometry x="3090" y="75" width="140" height="50" as="geometry" />
        </mxCell>
        <mxCell id="LB_BIZ6fuCPDCH63aikm-48" style="edgeStyle=orthogonalEdgeStyle;rounded=0;orthogonalLoop=1;jettySize=auto;html=1;exitX=1;exitY=0.5;exitDx=0;exitDy=0;entryX=0;entryY=0.5;entryDx=0;entryDy=0;" parent="1" source="LB_BIZ6fuCPDCH63aikm-52" target="LB_BIZ6fuCPDCH63aikm-68" edge="1">
          <mxGeometry relative="1" as="geometry">
            <Array as="points">
              <mxPoint x="630" y="1647.38" />
              <mxPoint x="630" y="1620.38" />
            </Array>
          </mxGeometry>
        </mxCell>
        <mxCell id="LB_BIZ6fuCPDCH63aikm-49" style="edgeStyle=orthogonalEdgeStyle;rounded=0;orthogonalLoop=1;jettySize=auto;html=1;exitX=1;exitY=0.5;exitDx=0;exitDy=0;entryX=0;entryY=0.5;entryDx=0;entryDy=0;" parent="1" source="LB_BIZ6fuCPDCH63aikm-52" target="LB_BIZ6fuCPDCH63aikm-71" edge="1">
          <mxGeometry relative="1" as="geometry">
            <Array as="points">
              <mxPoint x="630" y="1647.38" />
              <mxPoint x="630" y="1680.38" />
            </Array>
          </mxGeometry>
        </mxCell>
        <mxCell id="LB_BIZ6fuCPDCH63aikm-51" style="edgeStyle=orthogonalEdgeStyle;rounded=0;orthogonalLoop=1;jettySize=auto;html=1;exitX=1;exitY=0.5;exitDx=0;exitDy=0;entryX=0;entryY=0.5;entryDx=0;entryDy=0;" parent="1" source="LB_BIZ6fuCPDCH63aikm-52" target="LB_BIZ6fuCPDCH63aikm-80" edge="1">
          <mxGeometry relative="1" as="geometry">
            <Array as="points">
              <mxPoint x="630" y="1647.38" />
              <mxPoint x="630" y="1561.38" />
            </Array>
          </mxGeometry>
        </mxCell>
        <mxCell id="LB_BIZ6fuCPDCH63aikm-52" value="Grab the base plate carrier" style="rounded=0;whiteSpace=wrap;html=1;" parent="1" vertex="1">
          <mxGeometry x="480" y="1622.38" width="140" height="50" as="geometry" />
        </mxCell>
        <mxCell id="LB_BIZ6fuCPDCH63aikm-53" style="edgeStyle=orthogonalEdgeStyle;rounded=0;orthogonalLoop=1;jettySize=auto;html=1;exitX=0.5;exitY=1;exitDx=0;exitDy=0;entryX=0.5;entryY=0;entryDx=0;entryDy=0;" parent="1" source="LB_BIZ6fuCPDCH63aikm-56" target="LB_BIZ6fuCPDCH63aikm-72" edge="1">
          <mxGeometry relative="1" as="geometry">
            <Array as="points">
              <mxPoint x="400" y="1787.38" />
              <mxPoint x="270" y="1787.38" />
            </Array>
          </mxGeometry>
        </mxCell>
        <mxCell id="LB_BIZ6fuCPDCH63aikm-54" style="edgeStyle=orthogonalEdgeStyle;rounded=0;orthogonalLoop=1;jettySize=auto;html=1;exitX=0.5;exitY=1;exitDx=0;exitDy=0;entryX=0.5;entryY=0;entryDx=0;entryDy=0;" parent="1" source="LB_BIZ6fuCPDCH63aikm-56" target="LB_BIZ6fuCPDCH63aikm-75" edge="1">
          <mxGeometry relative="1" as="geometry" />
        </mxCell>
        <mxCell id="LB_BIZ6fuCPDCH63aikm-55" style="edgeStyle=orthogonalEdgeStyle;rounded=0;orthogonalLoop=1;jettySize=auto;html=1;exitX=0.5;exitY=1;exitDx=0;exitDy=0;entryX=0.5;entryY=0;entryDx=0;entryDy=0;" parent="1" source="LB_BIZ6fuCPDCH63aikm-56" target="LB_BIZ6fuCPDCH63aikm-77" edge="1">
          <mxGeometry relative="1" as="geometry">
            <Array as="points">
              <mxPoint x="400" y="1787.38" />
              <mxPoint x="530" y="1787.38" />
            </Array>
          </mxGeometry>
        </mxCell>
        <mxCell id="LB_BIZ6fuCPDCH63aikm-56" value="Place base plate carrier inside the manufacturing line" style="rounded=0;whiteSpace=wrap;html=1;" parent="1" vertex="1">
          <mxGeometry x="330" y="1727.38" width="140" height="50" as="geometry" />
        </mxCell>
        <mxCell id="LB_BIZ6fuCPDCH63aikm-57" style="edgeStyle=orthogonalEdgeStyle;rounded=0;orthogonalLoop=1;jettySize=auto;html=1;exitX=0;exitY=0.5;exitDx=0;exitDy=0;entryX=1;entryY=0.5;entryDx=0;entryDy=0;" parent="1" source="LB_BIZ6fuCPDCH63aikm-60" target="LB_BIZ6fuCPDCH63aikm-65" edge="1">
          <mxGeometry relative="1" as="geometry">
            <Array as="points">
              <mxPoint x="170" y="1647.38" />
              <mxPoint x="170" y="1587.38" />
            </Array>
          </mxGeometry>
        </mxCell>
        <mxCell id="LB_BIZ6fuCPDCH63aikm-58" style="edgeStyle=orthogonalEdgeStyle;rounded=0;orthogonalLoop=1;jettySize=auto;html=1;exitX=0;exitY=0.5;exitDx=0;exitDy=0;entryX=1;entryY=0.5;entryDx=0;entryDy=0;" parent="1" source="LB_BIZ6fuCPDCH63aikm-60" target="LB_BIZ6fuCPDCH63aikm-66" edge="1">
          <mxGeometry relative="1" as="geometry" />
        </mxCell>
        <mxCell id="LB_BIZ6fuCPDCH63aikm-59" style="edgeStyle=orthogonalEdgeStyle;rounded=0;orthogonalLoop=1;jettySize=auto;html=1;exitX=0;exitY=0.5;exitDx=0;exitDy=0;entryX=1;entryY=0.5;entryDx=0;entryDy=0;" parent="1" source="LB_BIZ6fuCPDCH63aikm-60" target="LB_BIZ6fuCPDCH63aikm-67" edge="1">
          <mxGeometry relative="1" as="geometry">
            <Array as="points">
              <mxPoint x="170" y="1647.38" />
              <mxPoint x="170" y="1707.38" />
            </Array>
          </mxGeometry>
        </mxCell>
        <mxCell id="LB_BIZ6fuCPDCH63aikm-60" value="Locate the next base plate" style="rounded=0;whiteSpace=wrap;html=1;" parent="1" vertex="1">
          <mxGeometry x="180" y="1622.38" width="140" height="50" as="geometry" />
        </mxCell>
        <mxCell id="LB_BIZ6fuCPDCH63aikm-61" style="edgeStyle=orthogonalEdgeStyle;rounded=0;orthogonalLoop=1;jettySize=auto;html=1;exitX=0;exitY=0.5;exitDx=0;exitDy=0;entryX=1;entryY=0.5;entryDx=0;entryDy=0;" parent="1" source="LB_BIZ6fuCPDCH63aikm-64" target="LB_BIZ6fuCPDCH63aikm-60" edge="1">
          <mxGeometry relative="1" as="geometry" />
        </mxCell>
        <mxCell id="LB_BIZ6fuCPDCH63aikm-62" style="edgeStyle=orthogonalEdgeStyle;rounded=0;orthogonalLoop=1;jettySize=auto;html=1;exitX=0.5;exitY=1;exitDx=0;exitDy=0;entryX=0.5;entryY=0;entryDx=0;entryDy=0;" parent="1" source="LB_BIZ6fuCPDCH63aikm-64" target="LB_BIZ6fuCPDCH63aikm-56" edge="1">
          <mxGeometry relative="1" as="geometry" />
        </mxCell>
        <mxCell id="LB_BIZ6fuCPDCH63aikm-63" style="edgeStyle=orthogonalEdgeStyle;rounded=0;orthogonalLoop=1;jettySize=auto;html=1;exitX=1;exitY=0.5;exitDx=0;exitDy=0;entryX=0;entryY=0.5;entryDx=0;entryDy=0;" parent="1" source="LB_BIZ6fuCPDCH63aikm-64" target="LB_BIZ6fuCPDCH63aikm-52" edge="1">
          <mxGeometry relative="1" as="geometry" />
        </mxCell>
        <mxCell id="LB_BIZ6fuCPDCH63aikm-64" value="Feeding the manufacturing line" style="ellipse;whiteSpace=wrap;html=1;aspect=fixed;" parent="1" vertex="1">
          <mxGeometry x="340" y="1587.38" width="120" height="120" as="geometry" />
        </mxCell>
        <mxCell id="LB_BIZ6fuCPDCH63aikm-65" value="Camera" style="ellipse;whiteSpace=wrap;html=1;" parent="1" vertex="1">
          <mxGeometry x="30" y="1564.88" width="120" height="45" as="geometry" />
        </mxCell>
        <mxCell id="LB_BIZ6fuCPDCH63aikm-66" value="Overlaying&lt;br&gt;Controller" style="ellipse;whiteSpace=wrap;html=1;fillColor=#FFFFFF;" parent="1" vertex="1">
          <mxGeometry x="30" y="1624.88" width="120" height="45" as="geometry" />
        </mxCell>
        <mxCell id="LB_BIZ6fuCPDCH63aikm-67" value="Magazine" style="ellipse;whiteSpace=wrap;html=1;" parent="1" vertex="1">
          <mxGeometry x="30" y="1684.88" width="120" height="45" as="geometry" />
        </mxCell>
        <mxCell id="LB_BIZ6fuCPDCH63aikm-68" value="Vacuum gripper" style="ellipse;whiteSpace=wrap;html=1;" parent="1" vertex="1">
          <mxGeometry x="650" y="1597.38" width="120" height="45" as="geometry" />
        </mxCell>
        <mxCell id="LB_BIZ6fuCPDCH63aikm-69" style="edgeStyle=orthogonalEdgeStyle;rounded=0;orthogonalLoop=1;jettySize=auto;html=1;exitX=1;exitY=0.5;exitDx=0;exitDy=0;entryX=0;entryY=0.5;entryDx=0;entryDy=0;" parent="1" source="LB_BIZ6fuCPDCH63aikm-71" edge="1">
          <mxGeometry relative="1" as="geometry">
            <Array as="points">
              <mxPoint x="770" y="1642.38" />
            </Array>
            <mxPoint x="790.0000000000023" y="1642.38" as="targetPoint" />
          </mxGeometry>
        </mxCell>
        <mxCell id="LB_BIZ6fuCPDCH63aikm-70" style="edgeStyle=orthogonalEdgeStyle;rounded=0;orthogonalLoop=1;jettySize=auto;html=1;exitX=1;exitY=0.5;exitDx=0;exitDy=0;entryX=0;entryY=0.5;entryDx=0;entryDy=0;" parent="1" source="LB_BIZ6fuCPDCH63aikm-71" edge="1">
          <mxGeometry relative="1" as="geometry">
            <Array as="points">
              <mxPoint x="770" y="1715.38" />
            </Array>
            <mxPoint x="790.0000000000023" y="1714.88" as="targetPoint" />
          </mxGeometry>
        </mxCell>
        <mxCell id="LB_BIZ6fuCPDCH63aikm-71" value="Parallel Grippers" style="ellipse;whiteSpace=wrap;html=1;" parent="1" vertex="1">
          <mxGeometry x="650" y="1657.38" width="120" height="45" as="geometry" />
        </mxCell>
        <mxCell id="LB_BIZ6fuCPDCH63aikm-72" value="Overlaying &lt;br&gt;Controller" style="ellipse;whiteSpace=wrap;html=1;fillColor=#FFFFFF;" parent="1" vertex="1">
          <mxGeometry x="210" y="1807.38" width="120" height="45" as="geometry" />
        </mxCell>
        <mxCell id="LB_BIZ6fuCPDCH63aikm-75" value="Camera" style="ellipse;whiteSpace=wrap;html=1;" parent="1" vertex="1">
          <mxGeometry x="340" y="1807.38" width="120" height="45" as="geometry" />
        </mxCell>
        <mxCell id="LB_BIZ6fuCPDCH63aikm-76" style="edgeStyle=orthogonalEdgeStyle;rounded=0;orthogonalLoop=1;jettySize=auto;html=1;exitX=0.5;exitY=1;exitDx=0;exitDy=0;" parent="1" source="LB_BIZ6fuCPDCH63aikm-71" target="LB_BIZ6fuCPDCH63aikm-71" edge="1">
          <mxGeometry relative="1" as="geometry" />
        </mxCell>
        <mxCell id="LB_BIZ6fuCPDCH63aikm-77" value="Force search" style="ellipse;whiteSpace=wrap;html=1;fillColor=#FFFFFF;" parent="1" vertex="1">
          <mxGeometry x="470" y="1807.38" width="120" height="45" as="geometry" />
        </mxCell>
        <mxCell id="LB_BIZ6fuCPDCH63aikm-80" value="Electromagnet" style="ellipse;whiteSpace=wrap;html=1;" parent="1" vertex="1">
          <mxGeometry x="650" y="1539.25" width="120" height="45" as="geometry" />
        </mxCell>
        <mxCell id="LB_BIZ6fuCPDCH63aikm-82" value="Electric" style="ellipse;whiteSpace=wrap;html=1;" parent="1" vertex="1">
          <mxGeometry x="790" y="1622.3799999999999" width="70" height="40" as="geometry" />
        </mxCell>
        <mxCell id="LB_BIZ6fuCPDCH63aikm-83" value="Pneumatic" style="ellipse;whiteSpace=wrap;html=1;" parent="1" vertex="1">
          <mxGeometry x="790" y="1695.38" width="70" height="40" as="geometry" />
        </mxCell>
        <mxCell id="LB_BIZ6fuCPDCH63aikm-98" style="edgeStyle=orthogonalEdgeStyle;rounded=0;orthogonalLoop=1;jettySize=auto;html=1;exitX=0.5;exitY=0;exitDx=0;exitDy=0;entryX=0.5;entryY=1;entryDx=0;entryDy=0;" parent="1" source="LB_BIZ6fuCPDCH63aikm-87" target="LB_BIZ6fuCPDCH63aikm-88" edge="1">
          <mxGeometry relative="1" as="geometry">
            <Array as="points">
              <mxPoint x="1500" y="1790" />
              <mxPoint x="1430" y="1790" />
            </Array>
          </mxGeometry>
        </mxCell>
        <mxCell id="LB_BIZ6fuCPDCH63aikm-99" style="edgeStyle=orthogonalEdgeStyle;rounded=0;orthogonalLoop=1;jettySize=auto;html=1;exitX=0.5;exitY=0;exitDx=0;exitDy=0;entryX=0.5;entryY=1;entryDx=0;entryDy=0;" parent="1" source="LB_BIZ6fuCPDCH63aikm-87" target="LB_BIZ6fuCPDCH63aikm-91" edge="1">
          <mxGeometry relative="1" as="geometry">
            <Array as="points">
              <mxPoint x="1500" y="1790" />
              <mxPoint x="1570" y="1790" />
            </Array>
          </mxGeometry>
        </mxCell>
        <mxCell id="LB_BIZ6fuCPDCH63aikm-87" value="Grab each individual block" style="rounded=0;whiteSpace=wrap;html=1;" parent="1" vertex="1">
          <mxGeometry x="1430" y="1803.38" width="140" height="50" as="geometry" />
        </mxCell>
        <mxCell id="LB_BIZ6fuCPDCH63aikm-88" value="Vacuum gripper" style="ellipse;whiteSpace=wrap;html=1;" parent="1" vertex="1">
          <mxGeometry x="1370" y="1727.38" width="120" height="45" as="geometry" />
        </mxCell>
        <mxCell id="LB_BIZ6fuCPDCH63aikm-100" style="edgeStyle=orthogonalEdgeStyle;rounded=0;orthogonalLoop=1;jettySize=auto;html=1;exitX=0.5;exitY=0;exitDx=0;exitDy=0;entryX=0.5;entryY=1;entryDx=0;entryDy=0;" parent="1" source="LB_BIZ6fuCPDCH63aikm-91" target="LB_BIZ6fuCPDCH63aikm-95" edge="1">
          <mxGeometry relative="1" as="geometry">
            <Array as="points">
              <mxPoint x="1625" y="1727" />
            </Array>
          </mxGeometry>
        </mxCell>
        <mxCell id="LB_BIZ6fuCPDCH63aikm-102" style="edgeStyle=orthogonalEdgeStyle;rounded=0;orthogonalLoop=1;jettySize=auto;html=1;exitX=0.5;exitY=0;exitDx=0;exitDy=0;entryX=0.5;entryY=1;entryDx=0;entryDy=0;" parent="1" source="LB_BIZ6fuCPDCH63aikm-91" target="LB_BIZ6fuCPDCH63aikm-94" edge="1">
          <mxGeometry relative="1" as="geometry">
            <Array as="points">
              <mxPoint x="1515" y="1727" />
            </Array>
          </mxGeometry>
        </mxCell>
        <mxCell id="LB_BIZ6fuCPDCH63aikm-91" value="Parallel Grippers" style="ellipse;whiteSpace=wrap;html=1;" parent="1" vertex="1">
          <mxGeometry x="1510" y="1727.38" width="120" height="45" as="geometry" />
        </mxCell>
        <mxCell id="LB_BIZ6fuCPDCH63aikm-92" style="edgeStyle=orthogonalEdgeStyle;rounded=0;orthogonalLoop=1;jettySize=auto;html=1;exitX=0.5;exitY=1;exitDx=0;exitDy=0;" parent="1" source="LB_BIZ6fuCPDCH63aikm-91" target="LB_BIZ6fuCPDCH63aikm-91" edge="1">
          <mxGeometry relative="1" as="geometry" />
        </mxCell>
        <mxCell id="LB_BIZ6fuCPDCH63aikm-94" value="Electric" style="ellipse;whiteSpace=wrap;html=1;" parent="1" vertex="1">
          <mxGeometry x="1480" y="1672.3799999999997" width="70" height="40" as="geometry" />
        </mxCell>
        <mxCell id="LB_BIZ6fuCPDCH63aikm-95" value="Pneumatic" style="ellipse;whiteSpace=wrap;html=1;" parent="1" vertex="1">
          <mxGeometry x="1590" y="1672.38" width="70" height="40" as="geometry" />
        </mxCell>
        <mxCell id="x5XvYj3nc7enN2POhmtc-5" value="&lt;div&gt;Polyscope&lt;/div&gt;&lt;div&gt;Artiminds RPS&lt;/div&gt;&lt;div&gt;Robo DK&lt;/div&gt;&lt;div&gt;Octopuz&lt;br&gt;&lt;/div&gt;" style="ellipse;whiteSpace=wrap;html=1;aspect=fixed;" parent="1" vertex="1">
          <mxGeometry x="2070" y="1819.88" width="90" height="90" as="geometry" />
        </mxCell>
        <mxCell id="x5XvYj3nc7enN2POhmtc-6" style="edgeStyle=orthogonalEdgeStyle;rounded=0;orthogonalLoop=1;jettySize=auto;html=1;exitX=1;exitY=0.5;exitDx=0;exitDy=0;entryX=-0.003;entryY=0.81;entryDx=0;entryDy=0;entryPerimeter=0;" parent="1" source="x5XvYj3nc7enN2POhmtc-7" target="x5XvYj3nc7enN2POhmtc-10" edge="1">
          <mxGeometry relative="1" as="geometry" />
        </mxCell>
        <mxCell id="x5XvYj3nc7enN2POhmtc-7" value="Motion Planner" style="ellipse;whiteSpace=wrap;html=1;" parent="1" vertex="1">
          <mxGeometry x="2160" y="1879.88" width="120" height="45" as="geometry" />
        </mxCell>
        <mxCell id="x5XvYj3nc7enN2POhmtc-8" style="edgeStyle=orthogonalEdgeStyle;rounded=0;orthogonalLoop=1;jettySize=auto;html=1;exitX=1;exitY=0.5;exitDx=0;exitDy=0;entryX=0.007;entryY=0.184;entryDx=0;entryDy=0;entryPerimeter=0;" parent="1" source="x5XvYj3nc7enN2POhmtc-9" target="x5XvYj3nc7enN2POhmtc-10" edge="1">
          <mxGeometry relative="1" as="geometry">
            <mxPoint x="2310" y="1834.88" as="targetPoint" />
          </mxGeometry>
        </mxCell>
        <mxCell id="x5XvYj3nc7enN2POhmtc-9" value="Program Logic" style="ellipse;whiteSpace=wrap;html=1;" parent="1" vertex="1">
          <mxGeometry x="2160" y="1804.88" width="120" height="45" as="geometry" />
        </mxCell>
        <mxCell id="x5XvYj3nc7enN2POhmtc-10" value="UR Controller" style="rounded=1;whiteSpace=wrap;html=1;" parent="1" vertex="1">
          <mxGeometry x="2320" y="1804.88" width="80" height="120" as="geometry" />
        </mxCell>
        <mxCell id="x5XvYj3nc7enN2POhmtc-11" style="edgeStyle=orthogonalEdgeStyle;rounded=0;orthogonalLoop=1;jettySize=auto;html=1;exitX=1;exitY=0.5;exitDx=0;exitDy=0;entryX=0;entryY=0.5;entryDx=0;entryDy=0;" parent="1" source="x5XvYj3nc7enN2POhmtc-12" target="x5XvYj3nc7enN2POhmtc-15" edge="1">
          <mxGeometry relative="1" as="geometry" />
        </mxCell>
        <mxCell id="x5XvYj3nc7enN2POhmtc-12" value="Motion Planner" style="ellipse;whiteSpace=wrap;html=1;" parent="1" vertex="1">
          <mxGeometry x="2530" y="1882.38" width="120" height="45" as="geometry" />
        </mxCell>
        <mxCell id="x5XvYj3nc7enN2POhmtc-13" style="edgeStyle=orthogonalEdgeStyle;rounded=0;orthogonalLoop=1;jettySize=auto;html=1;exitX=1;exitY=0.5;exitDx=0;exitDy=0;entryX=0;entryY=0.5;entryDx=0;entryDy=0;" parent="1" source="x5XvYj3nc7enN2POhmtc-14" target="x5XvYj3nc7enN2POhmtc-16" edge="1">
          <mxGeometry relative="1" as="geometry" />
        </mxCell>
        <mxCell id="x5XvYj3nc7enN2POhmtc-14" value="Program Logic" style="ellipse;whiteSpace=wrap;html=1;" parent="1" vertex="1">
          <mxGeometry x="2530" y="1802.38" width="120" height="45" as="geometry" />
        </mxCell>
        <mxCell id="x5XvYj3nc7enN2POhmtc-15" value="UR Controller" style="rounded=1;whiteSpace=wrap;html=1;" parent="1" vertex="1">
          <mxGeometry x="2690" y="1884.88" width="80" height="40" as="geometry" />
        </mxCell>
        <mxCell id="x5XvYj3nc7enN2POhmtc-16" value="External PC" style="rounded=1;whiteSpace=wrap;html=1;" parent="1" vertex="1">
          <mxGeometry x="2690" y="1804.88" width="80" height="40" as="geometry" />
        </mxCell>
        <mxCell id="x5XvYj3nc7enN2POhmtc-17" style="edgeStyle=orthogonalEdgeStyle;rounded=0;orthogonalLoop=1;jettySize=auto;html=1;exitX=1;exitY=0.5;exitDx=0;exitDy=0;entryX=-0.003;entryY=0.81;entryDx=0;entryDy=0;entryPerimeter=0;" parent="1" source="x5XvYj3nc7enN2POhmtc-18" target="x5XvYj3nc7enN2POhmtc-21" edge="1">
          <mxGeometry relative="1" as="geometry" />
        </mxCell>
        <mxCell id="x5XvYj3nc7enN2POhmtc-18" value="Motion Planner" style="ellipse;whiteSpace=wrap;html=1;" parent="1" vertex="1">
          <mxGeometry x="2900" y="1879.88" width="120" height="45" as="geometry" />
        </mxCell>
        <mxCell id="x5XvYj3nc7enN2POhmtc-19" style="edgeStyle=orthogonalEdgeStyle;rounded=0;orthogonalLoop=1;jettySize=auto;html=1;exitX=1;exitY=0.5;exitDx=0;exitDy=0;entryX=0.007;entryY=0.184;entryDx=0;entryDy=0;entryPerimeter=0;" parent="1" source="x5XvYj3nc7enN2POhmtc-20" target="x5XvYj3nc7enN2POhmtc-21" edge="1">
          <mxGeometry relative="1" as="geometry">
            <mxPoint x="3050" y="1834.88" as="targetPoint" />
          </mxGeometry>
        </mxCell>
        <mxCell id="x5XvYj3nc7enN2POhmtc-20" value="Program Logic" style="ellipse;whiteSpace=wrap;html=1;" parent="1" vertex="1">
          <mxGeometry x="2900" y="1804.88" width="120" height="45" as="geometry" />
        </mxCell>
        <mxCell id="x5XvYj3nc7enN2POhmtc-21" value="UR Controller" style="rounded=1;whiteSpace=wrap;html=1;" parent="1" vertex="1">
          <mxGeometry x="3060" y="1804.88" width="80" height="120" as="geometry" />
        </mxCell>
        <mxCell id="x5XvYj3nc7enN2POhmtc-22" value="UR-RTDE" style="ellipse;whiteSpace=wrap;html=1;aspect=fixed;" parent="1" vertex="1">
          <mxGeometry x="2440" y="1819.88" width="90" height="90" as="geometry" />
        </mxCell>
        <mxCell id="x5XvYj3nc7enN2POhmtc-23" value="MoveIt" style="ellipse;whiteSpace=wrap;html=1;aspect=fixed;" parent="1" vertex="1">
          <mxGeometry x="2810" y="1819.88" width="90" height="90" as="geometry" />
        </mxCell>
        <mxCell id="x5XvYj3nc7enN2POhmtc-24" style="edgeStyle=orthogonalEdgeStyle;rounded=0;orthogonalLoop=1;jettySize=auto;html=1;exitX=1;exitY=0.5;exitDx=0;exitDy=0;entryX=-0.003;entryY=0.81;entryDx=0;entryDy=0;entryPerimeter=0;" parent="1" source="x5XvYj3nc7enN2POhmtc-25" target="x5XvYj3nc7enN2POhmtc-28" edge="1">
          <mxGeometry relative="1" as="geometry" />
        </mxCell>
        <mxCell id="x5XvYj3nc7enN2POhmtc-25" value="Motion Planner" style="ellipse;whiteSpace=wrap;html=1;" parent="1" vertex="1">
          <mxGeometry x="2180" y="2038.13" width="90" height="45" as="geometry" />
        </mxCell>
        <mxCell id="x5XvYj3nc7enN2POhmtc-26" style="edgeStyle=orthogonalEdgeStyle;rounded=0;orthogonalLoop=1;jettySize=auto;html=1;exitX=1;exitY=0.5;exitDx=0;exitDy=0;entryX=0.007;entryY=0.184;entryDx=0;entryDy=0;entryPerimeter=0;" parent="1" source="x5XvYj3nc7enN2POhmtc-27" target="x5XvYj3nc7enN2POhmtc-28" edge="1">
          <mxGeometry relative="1" as="geometry">
            <mxPoint x="2300" y="1993.13" as="targetPoint" />
          </mxGeometry>
        </mxCell>
        <mxCell id="x5XvYj3nc7enN2POhmtc-27" value="Program Logic" style="ellipse;whiteSpace=wrap;html=1;" parent="1" vertex="1">
          <mxGeometry x="2180" y="1963.13" width="90" height="45" as="geometry" />
        </mxCell>
        <mxCell id="x5XvYj3nc7enN2POhmtc-28" value="UR Controller" style="rounded=1;whiteSpace=wrap;html=1;" parent="1" vertex="1">
          <mxGeometry x="2310" y="1963.13" width="60" height="120" as="geometry" />
        </mxCell>
        <mxCell id="x5XvYj3nc7enN2POhmtc-29" style="edgeStyle=orthogonalEdgeStyle;rounded=0;orthogonalLoop=1;jettySize=auto;html=1;exitX=1;exitY=0.5;exitDx=0;exitDy=0;entryX=0;entryY=0.5;entryDx=0;entryDy=0;" parent="1" source="x5XvYj3nc7enN2POhmtc-30" target="x5XvYj3nc7enN2POhmtc-33" edge="1">
          <mxGeometry relative="1" as="geometry" />
        </mxCell>
        <mxCell id="x5XvYj3nc7enN2POhmtc-30" value="Motion Planner" style="ellipse;whiteSpace=wrap;html=1;" parent="1" vertex="1">
          <mxGeometry x="2550" y="2040.63" width="90" height="45" as="geometry" />
        </mxCell>
        <mxCell id="x5XvYj3nc7enN2POhmtc-31" style="edgeStyle=orthogonalEdgeStyle;rounded=0;orthogonalLoop=1;jettySize=auto;html=1;exitX=1;exitY=0.5;exitDx=0;exitDy=0;entryX=0;entryY=0.5;entryDx=0;entryDy=0;" parent="1" source="x5XvYj3nc7enN2POhmtc-32" target="x5XvYj3nc7enN2POhmtc-35" edge="1">
          <mxGeometry relative="1" as="geometry" />
        </mxCell>
        <mxCell id="x5XvYj3nc7enN2POhmtc-32" value="Program Logic" style="ellipse;whiteSpace=wrap;html=1;" parent="1" vertex="1">
          <mxGeometry x="2550" y="1960.63" width="90" height="45" as="geometry" />
        </mxCell>
        <mxCell id="x5XvYj3nc7enN2POhmtc-33" value="UR Controller" style="rounded=1;whiteSpace=wrap;html=1;" parent="1" vertex="1">
          <mxGeometry x="2680" y="2043.13" width="60" height="40" as="geometry" />
        </mxCell>
        <mxCell id="x5XvYj3nc7enN2POhmtc-34" style="edgeStyle=orthogonalEdgeStyle;rounded=0;orthogonalLoop=1;jettySize=auto;html=1;exitX=0.5;exitY=1;exitDx=0;exitDy=0;entryX=0.5;entryY=0;entryDx=0;entryDy=0;" parent="1" source="x5XvYj3nc7enN2POhmtc-35" target="x5XvYj3nc7enN2POhmtc-33" edge="1">
          <mxGeometry relative="1" as="geometry" />
        </mxCell>
        <mxCell id="x5XvYj3nc7enN2POhmtc-35" value="External PC" style="rounded=1;whiteSpace=wrap;html=1;" parent="1" vertex="1">
          <mxGeometry x="2680" y="1963.13" width="60" height="40" as="geometry" />
        </mxCell>
      </root>
    </mxGraphModel>
  </diagram>
</mxfile>
